<?xml version="1.0" encoding="UTF-8"?>
<svg width="74px" height="51px" viewBox="0 0 74 51" version="1.1" xmlns="http://www.w3.org/2000/svg" xmlns:xlink="http://www.w3.org/1999/xlink">
    <title>C7459707-33FC-4FCD-938F-C01636B41F32</title>
    <g id="Pages" stroke="none" stroke-width="1" fill="none" fill-rule="evenodd">
        <g id="Homepage" transform="translate(-919.000000, -1517.000000)" fill-rule="nonzero" stroke="#465DFF" stroke-width="2.5">
            <g id="Introdution" transform="translate(63.000000, 1447.000000)">
                <path d="M878.141726,119.64 C890.173726,119.64 898.941726,111.448 898.941726,95.32 C898.941726,79.192 889.661726,71.64 878.141726,71.64 C866.941726,71.64 857.405726,79.064 857.405726,95.32 C857.405726,111.64 866.109726,119.64 878.141726,119.64 Z M878.141726,109.336 C872.765726,109.336 869.757726,105.624 869.757726,95.448 C869.757726,85.272 873.021726,81.752 878.205726,81.752 C880.765726,81.752 882.813726,82.712 884.285726,84.696 C885.757726,86.68 886.525726,90.264 886.525726,95.448 C886.525726,100.696 885.821726,104.344 884.349726,106.328 C882.877726,108.312 880.829726,109.336 878.141726,109.336 Z M928.516,119 L928.516,72.28 L917.572,72.28 C917.508,78.424 913.476,82.072 905.476,82.072 L905.156,82.072 L905.156,93.4 L905.86,93.4 C911.172,93.4 915.012,90.008 916.868,84.12 L916.868,119 L928.516,119 Z" id="01"></path>
            </g>
        </g>
    </g>
</svg>