<?xml version="1.0" encoding="UTF-8"?>
<svg width="75px" height="47px" viewBox="0 0 75 47" version="1.1" xmlns="http://www.w3.org/2000/svg" xmlns:xlink="http://www.w3.org/1999/xlink">
    <title>982BB013-D3D8-453B-993A-904A05AAF37A</title>
    <g id="Pages" stroke="none" stroke-width="1" fill="none" fill-rule="evenodd" fill-opacity="0">
        <g id="Homepage" transform="translate(-816.000000, -2701.000000)" fill="#465DFF" fill-rule="nonzero" stroke="#465DFF" stroke-width="2.6">
            <g id="5-points" transform="translate(-94.000000, 2268.000000)">
                <path d="M929.355,478.59 C939.208,478.59 946.937,471.274 946.937,456.17 C946.937,441.066 939.031,434.34 929.355,434.34 C919.915,434.34 911.773,440.889 911.773,456.17 C911.773,471.451 919.384,478.59 929.355,478.59 Z M929.355,470.625 C926.759,470.625 924.576,469.563 922.865,467.38 C921.154,465.197 920.328,461.539 920.328,456.288 C920.328,451.037 921.213,447.438 922.924,445.373 C924.694,443.308 926.877,442.246 929.414,442.246 C931.892,442.246 934.016,443.249 935.727,445.255 C937.497,447.202 938.382,450.919 938.382,456.288 C938.382,461.657 937.497,465.433 935.786,467.498 C934.075,469.563 931.951,470.625 929.355,470.625 Z M983.696763,478 L983.696763,470.094 L961.807763,470.094 C976.793763,460.3 983.047763,455.226 983.047763,446.848 C983.047763,440.063 978.150763,434.34 968.651763,434.34 C960.214763,434.34 954.668763,439.001 951.895763,446.73 L960.155763,449.503 C961.394763,443.839 964.226763,441.42 968.474763,441.42 C972.486763,441.42 974.846763,443.898 974.846763,447.91 C974.846763,453.161 972.014763,456.996 952.426763,470.448 L952.426763,478 L983.696763,478 Z" id="02"></path>
            </g>
        </g>
    </g>
</svg>