<?xml version="1.0" encoding="UTF-8"?>
<svg width="76px" height="47px" viewBox="0 0 76 47" version="1.1" xmlns="http://www.w3.org/2000/svg" xmlns:xlink="http://www.w3.org/1999/xlink">
    <title>A79B795B-5E14-4490-B69D-589790DF9BC4</title>
    <g id="Pages" stroke="none" stroke-width="1" fill="none" fill-rule="evenodd" fill-opacity="0">
        <g id="Homepage" transform="translate(-1221.000000, -2701.000000)" fill="#465DFF" fill-rule="nonzero" stroke="#465DFF" stroke-width="2.6">
            <g id="5-points" transform="translate(-94.000000, 2268.000000)">
                <path d="M1334.355,478.59 C1344.208,478.59 1351.937,471.274 1351.937,456.17 C1351.937,441.066 1344.031,434.34 1334.355,434.34 C1324.915,434.34 1316.773,440.889 1316.773,456.17 C1316.773,471.451 1324.384,478.59 1334.355,478.59 Z M1334.355,470.625 C1331.759,470.625 1329.576,469.563 1327.865,467.38 C1326.154,465.197 1325.328,461.539 1325.328,456.288 C1325.328,451.037 1326.213,447.438 1327.924,445.373 C1329.694,443.308 1331.877,442.246 1334.414,442.246 C1336.892,442.246 1339.016,443.249 1340.727,445.255 C1342.497,447.202 1343.382,450.919 1343.382,456.288 C1343.382,461.657 1342.497,465.433 1340.786,467.498 C1339.075,469.563 1336.951,470.625 1334.355,470.625 Z M1374.12376,478.59 C1383.91776,478.59 1389.22776,473.103 1389.22776,466.2 C1389.22776,460.064 1385.68776,456.76 1379.55176,455.521 C1384.74376,454.282 1388.10676,450.919 1388.10676,445.491 C1388.10676,438.293 1382.14776,434.34 1373.53376,434.34 C1366.51276,434.34 1360.78976,438.057 1357.07276,443.78 L1364.09376,447.91 C1366.27676,443.426 1369.04976,441.538 1373.12076,441.538 C1377.60476,441.538 1380.08276,443.485 1380.08276,447.261 C1380.08276,450.978 1376.60176,452.866 1371.64576,452.866 L1367.22076,452.866 L1367.22076,459.297 L1372.47176,459.297 C1378.37176,459.297 1381.43976,461.244 1381.43976,465.079 C1381.43976,468.619 1378.78476,471.038 1373.76976,471.038 C1369.04976,471.038 1365.21476,468.796 1363.09076,465.315 L1356.48276,469.917 C1359.84576,475.404 1366.33576,478.59 1374.12376,478.59 Z" id="03"></path>
            </g>
        </g>
    </g>
</svg>