<?xml version="1.0" encoding="UTF-8"?>
<svg width="76px" height="47px" viewBox="0 0 76 47" version="1.1" xmlns="http://www.w3.org/2000/svg" xmlns:xlink="http://www.w3.org/1999/xlink">
    <title>894961ED-BC4B-46FE-B772-08023610E7AF</title>
    <g id="Pages" stroke="none" stroke-width="1" fill="none" fill-rule="evenodd" fill-opacity="0">
        <g id="Homepage" transform="translate(-406.000000, -3179.000000)" fill="#465DFF" fill-rule="nonzero" stroke="#465DFF" stroke-width="2.6">
            <g id="5-points" transform="translate(-94.000000, 2268.000000)">
                <path d="M519.172,956.59 C528.966,956.59 536.164,951.044 536.164,935.232 L536.164,933.226 C536.164,918.535 528.848,912.34 519.172,912.34 C509.732,912.34 502.18,918.358 502.18,933.226 L502.18,935.232 C502.18,950.867 509.26,956.59 519.172,956.59 Z M519.172,948.625 C513.98,948.625 510.735,945.734 510.735,935.114 L510.735,933.344 C510.735,928.329 511.502,924.848 513.036,923.019 C514.629,921.19 516.694,920.246 519.231,920.246 C524.187,920.246 527.609,922.96 527.609,933.344 L527.609,935.114 C527.609,945.557 524.364,948.625 519.172,948.625 Z M568.557763,956 L568.557763,944.967 L574.162763,944.967 L574.162763,944.495 L568.557763,944.495 L568.557763,912.93 L560.297763,912.93 L538.703763,944.495 L538.703763,944.967 L560.592763,944.967 L560.592763,956 L568.557763,956 Z M560.592763,944.495 L547.258763,944.495 L560.592763,924.73 L560.592763,944.495 Z" id="04"></path>
            </g>
        </g>
    </g>
</svg>