<?xml version="1.0" encoding="UTF-8"?>
<svg width="550px" height="371px" viewBox="0 0 550 371" version="1.1" xmlns="http://www.w3.org/2000/svg" xmlns:xlink="http://www.w3.org/1999/xlink">
    <title>5382883D-C6D9-414D-8163-01A1086087C0</title>
    <g id="Pages" stroke="none" stroke-width="1" fill="none" fill-rule="evenodd">
        <g id="Homepage" transform="translate(-1275.000000, -3301.000000)" fill="#FFFFFF" fill-rule="nonzero">
            <g id="5-points" transform="translate(-94.000000, 2268.000000)">
                <path d="M1510.5,1404 C1593.12413,1404 1652,1356.01733 1652,1224.93067 L1652,1208.112 C1652,1084.94 1591.1451,1033 1510.5,1033 C1431.33916,1033 1369,1083.456 1369,1208.112 L1369,1224.93067 C1369,1356.01733 1426.88636,1404 1510.5,1404 Z M1510.5,1348 C1460.61212,1348 1429,1319.3308 1429,1223.43726 L1429,1208.60837 C1429,1162.63878 1436.40909,1131.4981 1451.22727,1114.19772 C1466.53939,1096.89734 1486.29697,1088 1510.99394,1088 C1559.89394,1088 1592,1115.18631 1592,1208.60837 L1592,1223.43726 C1592,1270.88973 1584.59091,1303.51331 1570.26667,1321.30798 C1555.94242,1339.10266 1535.69091,1348 1510.5,1348 Z M1788.72067,1404 C1865.70391,1404 1919,1355.03514 1919,1283.81351 C1919,1213.08649 1867.18436,1175.0027 1801.05773,1175.0027 C1747.26816,1175.0027 1718.64618,1216.05405 1708.28305,1246.71892 L1717.65922,1092.40541 L1910.6108,1092.40541 L1910.6108,1038 L1667.8175,1038 L1654.98696,1250.67568 L1708.28305,1259.08378 C1716.17877,1225.94595 1744.80074,1180.93784 1791.68156,1180.93784 C1835.10801,1180.93784 1863.2365,1212.0973 1863.2365,1265.51351 C1863.2365,1320.90811 1832.6406,1349.59459 1789.21415,1349.59459 C1751.21601,1349.59459 1723.58101,1332.77838 1709.27002,1302.60811 L1654,1334.75676 C1679.66108,1378.28108 1723.58101,1404 1788.72067,1404 Z" id="05"></path>
            </g>
        </g>
    </g>
</svg>