<?xml version="1.0" encoding="UTF-8"?>
<svg width="77px" height="47px" viewBox="0 0 77 47" version="1.1" xmlns="http://www.w3.org/2000/svg" xmlns:xlink="http://www.w3.org/1999/xlink">
    <title>F1D8F2C9-804C-471A-93D7-57AA5CC4636A</title>
    <g id="Pages" stroke="none" stroke-width="1" fill="none" fill-rule="evenodd" fill-opacity="0">
        <g id="Homepage" transform="translate(-814.000000, -3179.000000)" fill="#465DFF" fill-rule="nonzero" stroke="#465DFF" stroke-width="2.6">
            <g id="5-points" transform="translate(-94.000000, 2268.000000)">
                <path d="M927.355,956.59 C937.208,956.59 944.937,949.274 944.937,934.17 C944.937,919.066 937.031,912.34 927.355,912.34 C917.915,912.34 909.773,918.889 909.773,934.17 C909.773,949.451 917.384,956.59 927.355,956.59 Z M927.355,948.625 C924.759,948.625 922.576,947.563 920.865,945.38 C919.154,943.197 918.328,939.539 918.328,934.288 C918.328,929.037 919.213,925.438 920.924,923.373 C922.694,921.308 924.877,920.246 927.414,920.246 C929.892,920.246 932.016,921.249 933.727,923.255 C935.497,925.202 936.382,928.919 936.382,934.288 C936.382,939.657 935.497,943.433 933.786,945.498 C932.075,947.563 929.951,948.625 927.355,948.625 Z M967.123763,956.59 C976.445763,956.59 983.230763,950.513 983.230763,941.25 C983.230763,932.046 977.802763,927.149 970.486763,927.149 C965.943763,927.149 962.462763,929.037 960.102763,932.164 L961.282763,920.836 L981.165763,920.836 L981.165763,912.93 L954.733763,912.93 L952.078763,936.589 L959.689763,937.828 C960.338763,936.825 961.223763,935.822 962.403763,934.819 C963.642763,933.757 965.294763,933.226 967.359763,933.226 C971.607763,933.226 975.029763,935.645 975.029763,940.837 C975.029763,945.557 972.256763,948.684 967.477763,948.684 C963.288763,948.684 960.515763,946.383 958.922763,942.843 L951.075763,947.858 C953.730763,953.05 959.335763,956.59 967.123763,956.59 Z" id="05"></path>
            </g>
        </g>
    </g>
</svg>