<?xml version="1.0" encoding="UTF-8"?>
<svg width="81px" height="49px" viewBox="0 0 81 49" version="1.1" xmlns="http://www.w3.org/2000/svg" xmlns:xlink="http://www.w3.org/1999/xlink">
    <title>5811A2DF-C6FB-4327-960A-BA8A01EB0CF7</title>
    <g id="Pages" stroke="none" stroke-width="1" fill="none" fill-rule="evenodd" fill-opacity="0">
        <g id="Proces-vyvoje" transform="translate(-1216.000000, -3835.000000)" fill="#FFFFFF" fill-rule="nonzero" stroke="#465DFF" stroke-width="2.5">
            <g id="Group-4-Copy" transform="translate(1176.000000, 3776.000000)">
                <path d="M59.88,106 C69.9,106 77.76,98.56 77.76,83.2 C77.76,67.84 69.72,61 59.88,61 C50.28,61 42,67.66 42,83.2 C42,98.74 49.74,106 59.88,106 Z M59.88,97.9 C57.24,97.9 55.02,96.82 53.28,94.6 C51.54,92.38 50.7,88.66 50.7,83.32 C50.7,77.98 51.6,74.32 53.34,72.22 C55.14,70.12 57.36,69.04 59.94,69.04 C62.46,69.04 64.62,70.06 66.36,72.1 C68.16,74.08 69.06,77.86 69.06,83.32 C69.06,88.78 68.16,92.62 66.42,94.72 C64.68,96.82 62.52,97.9 59.88,97.9 Z M102.085882,106 C112.045882,106 118.405882,98.86 118.405882,89.98 C118.405882,81.1 112.105882,76.42 104.605882,76.42 C99.625882,76.42 95.365882,78.76 92.305882,83.08 C92.725882,73.48 96.925882,68.74 103.345882,68.74 C107.665882,68.74 110.125882,70.06 112.585882,73 L118.465882,66.88 C114.925882,62.98 110.125882,61 103.585882,61 C92.965882,61 83.905882,69.28 83.905882,84.64 C83.905882,96.1 89.185882,106 102.085882,106 Z M102.085882,98.14 C97.045882,98.14 93.745882,95.26 92.725882,89.08 C94.645882,84.76 98.125882,82.66 102.685882,82.66 C106.525882,82.66 110.545882,84.52 110.545882,89.98 C110.545882,95.2 107.365882,98.14 102.085882,98.14 Z" id="06"></path>
            </g>
        </g>
    </g>
</svg>