<?xml version="1.0" encoding="UTF-8"?>
<svg width="79px" height="49px" viewBox="0 0 79 49" version="1.1" xmlns="http://www.w3.org/2000/svg" xmlns:xlink="http://www.w3.org/1999/xlink">
    <title>780AFC83-6645-4EFA-9A07-615BFC57F309</title>
    <g id="Pages" stroke="none" stroke-width="1" fill="none" fill-rule="evenodd" fill-opacity="0">
        <g id="Proces-vyvoje" transform="translate(-603.000000, -4345.000000)" fill="#FFFFFF" fill-rule="nonzero" stroke="#465DFF" stroke-width="2.5">
            <g id="Group-4-Copy-2" transform="translate(567.000000, 4238.000000)">
                <path d="M55.88,154 C65.9,154 73.76,146.56 73.76,131.2 C73.76,115.84 65.72,109 55.88,109 C46.28,109 38,115.66 38,131.2 C38,146.74 45.74,154 55.88,154 Z M55.88,145.9 C53.24,145.9 51.02,144.82 49.28,142.6 C47.54,140.38 46.7,136.66 46.7,131.32 C46.7,125.98 47.6,122.32 49.34,120.22 C51.14,118.12 53.36,117.04 55.94,117.04 C58.46,117.04 60.62,118.06 62.36,120.1 C64.16,122.08 65.06,125.86 65.06,131.32 C65.06,136.78 64.16,140.62 62.42,142.72 C60.68,144.82 58.52,145.9 55.88,145.9 Z M95.305882,153.4 L112.765882,116.98 L112.765882,109.6 L80.125882,109.6 L80.125882,117.52 L104.005882,117.52 L85.885882,153.4 L95.305882,153.4 Z" id="07"></path>
            </g>
        </g>
    </g>
</svg>