<?xml version="1.0" encoding="UTF-8"?>
<svg width="80px" height="49px" viewBox="0 0 80 49" version="1.1" xmlns="http://www.w3.org/2000/svg" xmlns:xlink="http://www.w3.org/1999/xlink">
    <title>B3CDC3DF-A540-4F7E-BFED-6FCE81D7434F</title>
    <g id="Pages" stroke="none" stroke-width="1" fill="none" fill-rule="evenodd" fill-opacity="0">
        <g id="Proces-vyvoje" transform="translate(-1107.000000, -4831.000000)" fill="#FFFFFF" fill-rule="nonzero" stroke="#465DFF" stroke-width="2.5">
            <g id="Group-4-Copy-3" transform="translate(1067.000000, 4744.000000)">
                <path d="M59.88,134 C69.9,134 77.76,126.56 77.76,111.2 C77.76,95.84 69.72,89 59.88,89 C50.28,89 42,95.66 42,111.2 C42,126.74 49.74,134 59.88,134 Z M59.88,125.9 C57.24,125.9 55.02,124.82 53.28,122.6 C51.54,120.38 50.7,116.66 50.7,111.32 C50.7,105.98 51.6,102.32 53.34,100.22 C55.14,98.12 57.36,97.04 59.94,97.04 C62.46,97.04 64.62,98.06 66.36,100.1 C68.16,102.08 69.06,105.86 69.06,111.32 C69.06,116.78 68.16,120.62 66.42,122.72 C64.68,124.82 62.52,125.9 59.88,125.9 Z M101.105882,134 C106.325882,134 110.525882,132.86 113.705882,130.58 C116.885882,128.24 118.445882,125.18 118.445882,121.34 C118.445882,115.82 114.605882,111.86 109.025882,110.36 C113.765882,108.92 117.005882,105.68 117.005882,100.4 C117.005882,97.04 115.565882,94.28 112.685882,92.18 C109.805882,90.08 105.965882,89 101.225882,89 C96.365882,89 92.465882,90.08 89.585882,92.3 C86.765882,94.46 85.325882,97.28 85.325882,100.7 C85.325882,106.22 88.685882,109.22 93.425882,110.42 C87.605882,112.1 83.765882,116.54 83.765882,122.12 C83.765882,129.74 89.885882,134 101.105882,134 Z M101.225882,107.96 C95.945882,107.96 93.245882,105.56 93.245882,102.14 C93.245882,98.72 96.245882,96.08 101.285882,96.08 C106.325882,96.08 109.145882,98.66 109.145882,102.08 C109.145882,105.5 106.505882,107.96 101.225882,107.96 Z M101.225882,126.56 C95.225882,126.56 92.285882,123.74 92.285882,119.96 C92.285882,116.18 95.525882,113.36 101.285882,113.36 C107.045882,113.36 110.105882,116.12 110.105882,119.9 C110.105882,123.68 107.225882,126.56 101.225882,126.56 Z" id="08"></path>
            </g>
        </g>
    </g>
</svg>