<?xml version="1.0" encoding="UTF-8"?>
<svg width="189px" height="269px" viewBox="0 0 189 269" version="1.1" xmlns="http://www.w3.org/2000/svg" xmlns:xlink="http://www.w3.org/1999/xlink">
    <title>19793D82-5729-4584-B0FA-69DDE3E96296</title>
    <g id="Pages" stroke="none" stroke-width="1" fill="none" fill-rule="evenodd">
        <g id="Proces-vyvoje" transform="translate(-1442.000000, -2127.000000)" fill="#465DFF" fill-rule="nonzero">
            <path d="M1630.63654,2396 L1630.63654,2355.28649 L1448.17885,2355.28649 C1492.15769,2333.83919 1527.77692,2316.02703 1553.94615,2300.03243 C1581.93269,2283.31081 1601.92308,2267.67973 1613.55385,2253.13919 C1625.18462,2238.59865 1631,2222.24054 1631,2204.06486 C1631,2161.17027 1599.74231,2127 1539.04423,2127 C1493.975,2127 1459.80962,2150.62838 1442,2186.61622 L1480.16346,2205.51892 C1489.97692,2181.16351 1509.60385,2164.44189 1538.31731,2164.44189 C1568.84808,2164.44189 1587.74808,2181.16351 1587.74808,2210.24459 C1587.74808,2221.51351 1584.47692,2232.78243 1577.93462,2244.05135 C1571.39231,2255.32027 1559.03462,2269.13378 1541.225,2284.76486 C1520.50769,2303.66757 1489.97692,2326.56892 1446.36154,2355.65 L1446.36154,2396 L1630.63654,2396 Z" id="2"></path>
        </g>
    </g>
</svg>