<?xml version="1.0" encoding="UTF-8"?>
<svg width="197px" height="272px" viewBox="0 0 197 272" version="1.1" xmlns="http://www.w3.org/2000/svg" xmlns:xlink="http://www.w3.org/1999/xlink">
    <title>5CB4BAFB-694F-4FCD-ACE6-B6DB9770A794</title>
    <g id="Pages" stroke="none" stroke-width="1" fill="none" fill-rule="evenodd">
        <g id="Proces-vyvoje" transform="translate(-240.000000, -2649.000000)" fill="#465DFF" fill-rule="nonzero">
            <path d="M338.863469,2921 C398.835793,2921 437,2887.99733 437,2845.56533 C437,2821.62933 428.276753,2805.30933 410.46679,2796.24267 C392.656827,2787.176 369.394834,2782.46133 340.680812,2782.09867 C389.385609,2779.19733 431.184502,2759.61333 431.184502,2717.544 C431.184502,2674.024 395.201107,2649 338.5,2649 C296.337638,2649 263.625461,2668.22133 244.361624,2697.23467 L279.98155,2718.632 C291.612546,2698.32267 310.512915,2685.62933 338.5,2685.62933 C372.302583,2685.62933 390.112546,2703.76267 390.112546,2731.688 C390.112546,2763.60267 366.487085,2780.648 330.140221,2780.648 L290.158672,2780.648 L290.158672,2783.54933 L331.594096,2783.54933 C374.119926,2783.54933 396.654982,2801.68267 396.654982,2832.14667 C396.654982,2845.56533 391.929889,2857.53333 382.843173,2867.32533 C373.756458,2877.11733 359.217712,2882.19467 339.226937,2882.19467 C311.96679,2882.19467 290.52214,2873.128 275.619926,2849.55467 L240,2876.02933 C263.261993,2906.13067 292.702952,2921 338.863469,2921 Z" id="3"></path>
        </g>
    </g>
</svg>