<?xml version="1.0" encoding="UTF-8"?>
<svg width="195px" height="269px" viewBox="0 0 195 269" version="1.1" xmlns="http://www.w3.org/2000/svg" xmlns:xlink="http://www.w3.org/1999/xlink">
    <title>C1AA453A-18A0-4F6A-A6D7-5ACF196CD8E2</title>
    <g id="Pages" stroke="none" stroke-width="1" fill="none" fill-rule="evenodd">
        <g id="Proces-vyvoje" transform="translate(-316.000000, -3241.000000)" fill="#465DFF" fill-rule="nonzero">
            <path d="M415.134078,3510 C471.782123,3510 511,3474.01216 511,3421.66622 C511,3369.68378 472.871508,3341.69324 424.212291,3341.69324 C384.631285,3341.69324 363.569832,3371.86486 355.944134,3394.4027 L362.843575,3280.98649 L504.826816,3280.98649 L504.826816,3241 L326.167598,3241 L316.726257,3397.31081 L355.944134,3403.49054 C361.75419,3379.13514 382.815642,3346.05541 417.312849,3346.05541 C449.268156,3346.05541 469.96648,3368.95676 469.96648,3408.21622 C469.96648,3448.92973 447.452514,3470.01351 415.497207,3470.01351 C387.536313,3470.01351 367.201117,3457.65405 356.670391,3435.47973 L316,3459.10811 C334.882682,3491.0973 367.201117,3510 415.134078,3510 Z" id="5"></path>
        </g>
    </g>
</svg>