<?xml version="1.0" encoding="UTF-8"?>
<svg width="205px" height="272px" viewBox="0 0 205 272" version="1.1" xmlns="http://www.w3.org/2000/svg" xmlns:xlink="http://www.w3.org/1999/xlink">
    <title>2226F01F-33C2-4D0F-991B-C9F73683E9F3</title>
    <g id="Pages" stroke="none" stroke-width="1" fill="none" fill-rule="evenodd">
        <g id="Proces-vyvoje" transform="translate(-1082.000000, -3637.000000)" fill="#465DFF" fill-rule="nonzero">
            <path d="M1192.10601,3909 C1252.22968,3909 1287,3867.29333 1287,3819.42133 C1287,3767.92267 1250.41873,3740.36 1200.0742,3740.36 C1162.40636,3740.36 1129.80919,3764.296 1125.10071,3811.08 C1123.28975,3802.01333 1121.84099,3790.408 1121.84099,3778.44 C1121.84099,3710.25867 1154.80035,3676.89333 1202.97173,3676.89333 C1230.49823,3676.89333 1247.15901,3684.14667 1261.64664,3695.752 L1283.0159,3658.76 C1262.73322,3645.704 1238.82862,3637 1204.42049,3637 C1130.17138,3637 1082,3687.048 1082,3779.89067 C1082,3854.6 1113.87279,3909 1192.10601,3909 Z M1192.10601,3869.10667 C1159.14664,3869.10667 1135.60424,3851.336 1126.54947,3817.608 C1130.53357,3768.28533 1160.9576,3744.34933 1193.91696,3744.34933 C1226.15194,3744.34933 1246.43463,3766.472 1246.43463,3806.00267 C1246.43463,3847.70933 1223.9788,3869.10667 1192.10601,3869.10667 Z" id="6"></path>
        </g>
    </g>
</svg>