<?xml version="1.0" encoding="UTF-8"?>
<svg width="205px" height="272px" viewBox="0 0 205 272" version="1.1" xmlns="http://www.w3.org/2000/svg" xmlns:xlink="http://www.w3.org/1999/xlink">
    <title>13868DA6-2528-4FB4-BD08-0028B3FC8CA5</title>
    <g id="Pages" stroke="none" stroke-width="1" fill="none" fill-rule="evenodd">
        <g id="Proces-vyvoje" transform="translate(-1380.000000, -5026.000000)" fill="#465DFF" fill-rule="nonzero">
            <path d="M1483.22695,5298 C1514.12234,5298 1538.47518,5291.10933 1557.01241,5277.69067 C1575.54965,5264.272 1585,5246.50133 1585,5224.74133 C1585,5180.85867 1548.28901,5156.19733 1488.67908,5156.56 C1538.83865,5155.472 1574.8227,5134.8 1574.8227,5094.90667 C1574.8227,5074.23467 1566.46277,5057.91467 1549.37943,5045.22133 C1532.65957,5032.528 1510.85106,5026 1483.59043,5026 C1428.70567,5026 1390.90426,5053.2 1390.90426,5095.26933 C1390.90426,5138.42667 1430.52305,5155.472 1478.86525,5156.56 C1419.25532,5156.56 1380,5181.22133 1380,5226.91733 C1380,5270.43733 1418.89184,5298 1483.22695,5298 Z M1483.59043,5155.10933 C1466.87057,5155.10933 1452.69504,5150.75733 1440.70035,5142.416 C1428.70567,5133.712 1422.89007,5121.38133 1422.89007,5105.78667 C1422.89007,5075.32267 1445.78901,5055.376 1483.9539,5055.376 C1522.11879,5055.376 1542.83688,5075.68533 1542.83688,5105.78667 C1542.83688,5137.70133 1515.93972,5155.10933 1483.59043,5155.10933 Z M1482.5,5267.17333 C1439.9734,5267.17333 1412.71277,5244.688 1413.07624,5213.86133 C1413.07624,5175.41867 1447.60638,5157.648 1483.59043,5157.648 C1519.93794,5157.648 1552.28723,5175.78133 1552.28723,5212.41067 C1552.28723,5245.776 1526.4805,5267.17333 1482.5,5267.17333 Z" id="8"></path>
        </g>
    </g>
</svg>