<?xml version="1.0" encoding="UTF-8"?>
<svg width="102px" height="102px" viewBox="0 0 102 102" version="1.1" xmlns="http://www.w3.org/2000/svg" xmlns:xlink="http://www.w3.org/1999/xlink">
    <title>5F93B7C7-4EAF-442D-971B-59E30B421C66</title>
    <g id="Pages" stroke="none" stroke-width="1" fill="none" fill-rule="evenodd">
        <g id="Technologie" transform="translate(-367.000000, -2306.000000)" fill="#111111" fill-rule="nonzero">
            <g id="ico-python" transform="translate(367.000000, 2306.000000)">
                <path d="M50.2042288,0 C24.5292189,0 26.1325321,11.2575839 26.1325321,11.2575839 L26.1611548,22.920325 L50.6621926,22.920325 L50.6621926,26.4220413 L16.4294342,26.4220413 C16.4294342,26.4220413 0,24.5381517 0,50.7314767 C0,76.9247963 14.3399765,75.9959259 14.3399765,75.9959259 L22.8981661,75.9959259 L22.8981661,63.8412082 C22.8981661,63.8412082 22.4368578,49.3423662 37.0091609,49.3423662 L61.3098395,49.3423662 C61.3098395,49.3423662 74.9628712,49.5655131 74.9628712,36.0011165 L74.9628712,13.5727682 C74.9628712,13.5727663 77.0357783,0 50.2042288,0 L50.2042288,0 L50.2042288,0 Z M36.6943112,7.84268694 C39.1319849,7.84268694 41.1022082,9.8347373 41.1022082,12.2994168 C41.1022082,14.7640963 39.1319849,16.7561467 36.6943112,16.7561467 C34.2566374,16.7561467 32.2864142,14.7640963 32.2864142,12.2994168 C32.2864142,9.8347373 34.2566374,7.84268694 36.6943112,7.84268694 L36.6943112,7.84268694 L36.6943112,7.84268694 Z" id="Shape"></path>
                <path d="M51.7957721,102 C77.4707889,102 75.8674685,90.7424168 75.8674685,90.7424168 L75.838846,79.079677 L51.3378087,79.079677 L51.3378087,75.5779609 L85.5705663,75.5779609 C85.5705663,75.5779609 102,77.4618449 102,51.2685184 C102,25.0752037 87.6600238,26.0040741 87.6600238,26.0040741 L79.1018343,26.0040741 L79.1018343,38.158788 C79.1018343,38.158788 79.56315,52.6576287 64.99084,52.6576287 L40.6901597,52.6576287 C40.6901597,52.6576287 27.0371288,52.4344822 27.0371288,65.9988866 L27.0371288,88.4272331 C27.0371288,88.4272331 24.964222,102 51.7957721,102 L51.7957721,102 L51.7957721,102 Z M65.3056894,94.1573138 C62.8680152,94.1573138 60.8977928,92.1652644 60.8977928,89.7005842 C60.8977928,87.2359037 62.8680152,85.2438547 65.3056894,85.2438547 C67.7433643,85.2438547 69.7135863,87.2359037 69.7135863,89.7005842 C69.7135863,92.1652644 67.7433643,94.1573138 65.3056894,94.1573138 L65.3056894,94.1573138 L65.3056894,94.1573138 Z" id="Shape"></path>
            </g>
        </g>
    </g>
</svg>