<?xml version="1.0" encoding="UTF-8"?>
<svg width="90px" height="91px" viewBox="0 0 90 91" version="1.1" xmlns="http://www.w3.org/2000/svg" xmlns:xlink="http://www.w3.org/1999/xlink">
    <title>2C714AA3-251D-47C1-B480-658ED9C8B70C</title>
    <g id="Pages" stroke="none" stroke-width="1" fill="none" fill-rule="evenodd">
        <g id="Technologie" transform="translate(-384.000000, -2514.000000)" fill="#111111" fill-rule="nonzero">
            <g id="ico-spring" transform="translate(384.000000, 2514.000000)">
                <path d="M81.8478413,4.73896628 C80.5819717,7.79559953 78.9761928,10.6982164 77.0422255,13.3638849 C68.5796533,4.81005077 57.0930595,0 45.1259042,0 C20.3711225,0 0,20.6145033 0,45.6717875 C0,58.1708111 5.06347808,70.136701 14.0183328,78.7616196 L15.6827168,80.254394 C23.8171006,87.1851321 34.119872,91 44.7508317,91 C68.286628,91 88.0716997,72.3521677 89.7478048,48.5862518 C90.9785112,36.9520896 87.6028592,22.2375993 81.8478413,4.73896628 Z M20.4297275,79.0222627 C19.7030247,79.9345137 18.5895283,80.4676474 17.4291479,80.4676474 C15.3076444,80.4676474 13.5729343,78.7023825 13.5729343,76.5580003 C13.5729343,74.413618 15.3193654,72.6483531 17.4291479,72.6483531 C18.308224,72.6483531 19.175579,72.9563859 19.8553978,73.5250618 C21.5080608,74.8756672 21.7659231,77.3517771 20.4297275,79.0222627 Z M81.660305,65.350345 C70.5253417,80.3610207 46.7434041,75.3021742 31.4943648,76.0248666 C31.4943648,76.0248666 28.7868106,76.1907304 26.0675353,76.6409322 C26.0675353,76.6409322 27.0872635,76.2025778 28.4117381,75.6931389 C39.113024,71.9256607 44.176502,71.1911209 50.6816649,67.8146075 C62.9301246,61.5117823 75.0379321,47.7213904 77.5579501,33.37417 C72.8929865,47.1764093 58.7574435,59.0356724 45.8760491,63.8575706 C37.0501255,67.1511522 21.1095463,70.3499544 21.1095463,70.3499544 L20.4648906,70.0063794 C9.61123154,64.6631949 9.28304315,40.8854316 29.0095098,33.2083062 C37.6478972,29.8436402 45.9112121,31.691837 55.2411393,29.440828 C65.2040013,27.04765 76.7257581,19.4889988 81.4141637,9.63194896 C86.6651781,25.4008593 92.9828046,50.0908736 81.660305,65.350345 L81.660305,65.350345 Z" id="Shape"></path>
            </g>
        </g>
    </g>
</svg>