<?xml version="1.0" encoding="UTF-8"?>
<svg width="118px" height="73px" viewBox="0 0 118 73" version="1.1" xmlns="http://www.w3.org/2000/svg" xmlns:xlink="http://www.w3.org/1999/xlink">
    <title>618BE218-AE33-4368-9A5D-1F116A260F1D</title>
    <g id="Pages" stroke="none" stroke-width="1" fill="none" fill-rule="evenodd">
        <g id="Technologie" transform="translate(-367.000000, -1857.000000)" fill="#111111" fill-rule="nonzero">
            <g id="ico-ruby" transform="translate(367.000000, 1857.000000)">
                <path d="M4,73 L44.9736124,73 C44.9736124,73 37.1419472,37.2569221 63.0746133,22.7833101 C68.7279345,20.0338425 86.7252047,9.76224687 116.184713,31.5504801 C117.118289,30.7723289 118,30.149808 118,30.149808 C118,30.149808 91.0300273,3.2257769 61,6.23462816 C45.9071884,7.58342355 27.3393995,21.3307612 16.4476797,39.4876222 C5.55595996,57.6444832 4,73 4,73 Z" id="Path"></path>
                <path d="M4,73 L44.9736124,73 C44.9736124,73 37.1419472,37.2569221 63.0746133,22.7833101 C68.7279345,20.0338425 86.7252047,9.76224687 116.184713,31.5504801 C117.118289,30.7723289 118,30.149808 118,30.149808 C118,30.149808 91.0300273,3.2257769 61,6.23462816 C45.9071884,7.58342355 27.3393995,21.3307612 16.4476797,39.4876222 C5.55595996,57.6444832 4,73 4,73 Z" id="Path"></path>
                <path d="M4,73 L44.9736124,73 C44.9736124,73 37.1419472,37.3353338 63.0746133,22.8934734 C68.7279345,20.1500375 86.7252047,9.90097524 116.184713,31.6414104 C117.118289,30.8649662 118,30.243811 118,30.243811 C118,30.243811 91.0300273,3.37884471 61,6.38109527 C45.855323,7.72693173 27.2875341,21.444111 16.3958144,39.5611403 C5.50409463,57.6781695 4,73 4,73 Z M89.3703367,9.27981995 L89.577798,5.81170293 C89.11101,5.55288822 87.8143767,4.93173293 84.5468608,4 L84.3393995,7.41635409 C86.0509554,7.98574644 87.710646,8.60690173 89.3703367,9.27981995 Z" id="Shape"></path>
                <path d="M83.8773256,19.4584864 L83.6703488,22.7450404 C85.377907,22.7972079 87.0854651,23.005878 88.7930233,23.3710507 L89,20.1366642 C87.2406977,19.7714916 85.5331395,19.5628215 83.8773256,19.4584864 Z M64.7319767,3.18221896 L65.2494186,3.18221896 L64.2145349,0 C62.6104651,0 60.9546512,0.104335048 59.247093,0.313005143 L60.2302326,3.39088905 C61.730814,3.23438648 63.2313953,3.18221896 64.7319767,3.18221896 Z M67.2156977,22.3798677 L68.405814,25.9794269 C69.9063953,25.2490816 71.4069767,24.6230713 72.9075581,24.1535636 L71.769186,20.710507 C70.0098837,21.2321822 68.5093023,21.806025 67.2156977,22.3798677 Z M43.7238372,8.65980896 L41.3953488,5.06024982 C40.1017442,5.73842763 38.7563953,6.46877296 37.3593023,7.30345334 L39.7395349,10.95518 C41.0848837,10.1204996 42.3784884,9.33798677 43.7238372,8.65980896 Z M54.3313953,32.1351947 L56.8151163,35.8912564 C57.6947674,34.5870683 58.7296512,33.3872153 59.8680233,32.1873622 L57.5395349,28.6399706 C56.3494186,29.7354886 55.2627907,30.9353417 54.3313953,32.1351947 Z M46.8284884,48.9331374 L51.0197674,52.2718589 C51.2267442,50.2373255 51.5889535,48.2027921 52.1063953,46.1682586 L48.380814,43.1947098 C47.7081395,45.1249082 47.2424419,47.0551065 46.8284884,48.9331374 Z M24.1645349,24.1535636 L20.4906977,20.9191771 C19.1453488,22.2233652 17.8517442,23.5275533 16.6616279,24.8317414 L20.6459302,28.2747979 C21.7325581,26.8662748 22.9226744,25.4577517 24.1645349,24.1535636 Z M8.5377907,47.4724467 L2.5872093,45.2814107 C1.60406977,47.5246143 0.51744186,50.1329904 0,51.5415136 L5.9505814,53.7325496 C6.62325581,51.9588538 7.70988372,49.4026451 8.5377907,47.4724467 Z M46.0523256,62.1836885 C46.155814,64.9485672 46.4145349,67.1917708 46.6732558,68.7567965 L52.8825581,71 C52.4168605,68.9654666 51.9511628,66.6700955 51.6406977,64.2182219 L46.0523256,62.1836885 Z" id="Shape"></path>
            </g>
        </g>
    </g>
</svg>