<?xml version="1.0" encoding="UTF-8"?>
<svg width="73px" height="134px" viewBox="0 0 73 134" version="1.1" xmlns="http://www.w3.org/2000/svg" xmlns:xlink="http://www.w3.org/1999/xlink">
    <title>EE46F68F-E8DA-457B-84B1-B2A9B12E4871</title>
    <g id="Pages" stroke="none" stroke-width="1" fill="none" fill-rule="evenodd">
        <g id="Technologie" transform="translate(-378.000000, -1360.000000)" fill="#111111" fill-rule="nonzero">
            <g id="ico-js" transform="translate(378.000000, 1360.000000)">
                <path d="M9.23431613,97.8786786 L9.23431613,121.57579 C9.23431613,126.252691 8.85576557,128.142818 7.61041146,129.984148 C6.36660246,131.778205 4.3548766,133.198659 2.15542056,134 L2.27373675e-13,131.494572 C1.67566566,130.645959 3.1110676,129.275827 3.77932523,128.001001 C4.3548766,126.864943 4.59514033,125.404079 4.59514033,121.907458 L4.59514033,97.8786786 L9.23431613,97.8786786 Z M61.4240782,104.98095 C66.7747746,104.98095 69.0035876,107.518401 69.0035876,111.363464 L69.0035876,111.363464 L69.0035876,126.408232 L65.5796364,126.408232 L65.2358507,124.126203 C63.3500508,125.734222 61.3383249,126.83292 58.6390276,126.83292 C54.4425242,126.83292 52.2183465,124.719394 52.2183465,121.001661 C52.2183465,116.686927 55.5982623,113.817045 63.094336,113.817045 L63.094336,113.817045 L64.6363502,113.817045 L64.6363502,111.914719 C64.6363502,109.37803 63.3067879,108.152764 60.2258498,108.152764 C57.9985819,108.152764 55.7257334,108.742142 53.9712674,109.37803 L53.9712674,109.37803 L53.3300491,106.713249 C55.557317,105.742643 58.2960145,104.98095 61.4240782,104.98095 Z M21.603649,104.98095 C26.9597532,104.98095 29.1816133,107.518401 29.1816133,111.363464 L29.1816133,111.363464 L29.1816133,126.408232 L25.7561169,126.408232 L25.4138763,124.126203 C23.5327118,125.734222 21.5178957,126.83292 18.8209161,126.83292 C14.6251852,126.83292 12.3963722,124.719394 12.3963722,121.001661 C12.3963722,116.686927 15.7786056,113.817045 23.2739068,113.817045 L23.2739068,113.817045 L24.8159209,113.817045 L24.8159209,111.914719 C24.8159209,109.37803 23.4879037,108.152764 20.4023304,108.152764 C18.175835,108.152764 15.9076218,108.742142 14.1531558,109.37803 L14.1531558,109.37803 L13.5119375,106.713249 C15.7392054,105.742643 18.4786754,104.98095 21.603649,104.98095 Z M36.5077255,105.363703 L40.5752127,118.295707 L41.48,122.18 L41.8365336,121.188579 C43.7013491,115.890631 45.0316572,110.532612 45.71732,105.363703 L50.3402722,105.363703 C49.1026436,112.292897 46.873058,119.900676 43.7496296,126.408232 L38.3069995,126.408232 L31.7534394,105.363703 L36.5077255,105.363703 Z M64.6371227,116.561122 L62.7961309,116.561122 C57.8270753,116.561122 56.5840389,118.168377 56.5840389,120.365011 C56.5840389,122.393905 57.7428671,123.661868 59.8812915,123.661868 C61.3792702,123.661868 63.0510731,122.900938 64.6371227,121.548342 L64.6371227,121.548342 L64.6371227,116.561122 Z M24.8159209,116.561122 L22.9780193,116.561122 C18.0058735,116.561122 16.7636096,118.168377 16.7636096,120.365011 C16.7636096,122.393905 17.923983,123.661868 20.0624074,123.661868 C21.5634763,123.661868 23.2352792,122.900938 24.8166935,121.548342 L24.8166935,121.548342 L24.8159209,121.548342 L24.8159209,116.561122 Z M70.7920459,105.388101 L70.7920459,105.67021 L70.2821615,105.67021 L70.2821615,107.079227 L69.9260149,107.079227 L69.9260149,105.67021 L69.4161305,105.67021 L69.4161305,105.388101 L70.7920459,105.388101 Z M71.5746412,105.387339 L72.0412628,106.583631 L72.5078843,105.387339 L73,105.387339 L73,107.078465 L72.6724379,107.078465 L72.6724379,105.740356 L72.6654849,105.740356 L72.1586907,107.078465 L71.9261525,107.078465 L71.4224485,105.740356 L71.416268,105.740356 L71.416268,107.078465 L71.0778902,107.078465 L71.0778902,105.387339 L71.5746412,105.387339 Z M70.7,83.204 L70.6750427,83.4368294 C69.5755723,91.0690568 44.1659889,92.6719626 27.5646616,91.6242575 C16.5434322,90.9243235 14.3980549,89.1722011 14.3980549,89.1722011 C24.8676819,90.8778137 42.525907,91.1873706 56.8405262,88.5279263 C68.6630852,86.3332853 70.4874365,83.6057112 70.6812514,83.2439717 L70.6963862,83.2139104 C70.6974314,83.2116574 70.6982796,83.209772 70.6989461,83.2082594 L70.7,83.204 Z M6.68412141,85.4941166 C-6.94678915,83.3104445 13.2423168,75.6988529 16.9374339,78.2668025 C16.9374339,78.2668025 16.8868022,78.2633608 16.7881514,78.2618551 L16.6468886,78.2613217 C16.1822856,78.2643933 15.1746629,78.3147101 13.726707,78.6236316 C13.0312356,78.7718922 11.7981395,79.1166672 10.6448757,79.5635967 L10.3327925,79.6879485 C8.37467699,80.4906522 6.82220888,81.5725382 8.85731067,82.4473451 C18.1008974,86.4159251 51.3785823,85.4674306 61.8999704,82.3223024 C67.2485551,80.7207141 64.9665819,78.6652811 64.8085075,78.5300318 L64.8001312,78.5229875 C74.4400373,82.8163734 43.8531516,91.4420306 6.68412141,85.4941166 Z M24.1345299,71.0798985 C24.1345299,71.0798985 20.5776997,73.1225163 26.668501,73.8125384 C34.0494645,74.6443772 37.8195191,74.5246717 45.9506307,73.0066231 C45.9506307,73.0066231 48.0913728,74.3294831 51.0796046,75.4739286 C32.8466008,83.1846394 9.81527537,75.0278922 24.1345299,71.0798985 Z M21.9057169,61.0177755 C21.9057169,61.0177755 17.9154849,63.9326422 24.0116941,64.5548057 C31.8963616,65.3584337 38.1200419,65.4240048 48.8963722,63.3775747 L48.9173951,63.3981329 C49.1056649,63.5799581 50.5457977,64.9243337 52.7259133,65.6824772 C30.6842272,72.0451669 6.13560936,66.1834103 21.9057169,61.0177755 Z M55.8617009,67.7929535 C55.86093,67.7929535 56.1297782,67.5535426 56.2101236,67.3400551 C73.6829361,58.3812049 65.604358,49.7700344 59.9639546,50.9304914 C58.584949,51.2148872 57.9661347,51.4603978 57.9661347,51.4603978 C57.9661347,51.4603978 58.4806544,50.6659194 59.4587055,50.3243394 C70.6151314,46.4548786 79.1935508,61.7398207 55.8617009,67.7929535 Z M25.845733,50.5911988 L25.8257811,50.5959091 C25.179873,50.7489316 9.13930767,54.5886301 19.8530458,56.0023443 C24.4705901,56.6115461 33.6685963,56.4712543 42.2431529,55.7614084 C49.248656,55.1811799 56.2804259,53.9399026 56.2804259,53.9399026 C56.2804259,53.9399026 53.8121217,54.9852289 52.0236634,56.1883834 C34.833605,60.6510344 1.63085764,58.5725812 11.1904182,54.0108109 C17.6563709,50.9237818 23.1562007,50.5874475 25.0974946,50.5763949 L25.3055502,50.5764252 C25.6574921,50.5786212 25.845733,50.5911988 25.845733,50.5911988 Z M57.3434576,18.7754626 C37.0322884,30.3998566 40.7845744,33.7706716 45.6763747,40.5557617 C50.7993914,47.6731636 40.0070977,53.3866176 39.5249103,53.6370341 L39.5083182,53.6455948 C39.5083182,53.6455948 45.1811688,49.0533264 40.6864602,43.947163 C25.4602294,26.6310399 57.3426851,18.7747001 57.3434576,18.7754626 Z M45.6763747,3.90798505e-13 C45.6763747,3.90798505e-13 55.3510456,9.55432779 36.4976823,24.2415049 C25.611557,32.7274498 28.6144611,38.5861224 32.434463,44.0677358 L32.7544078,44.5237123 C32.8079538,44.599579 32.8615873,44.675385 32.9152734,44.7511364 L33.2377405,45.205037 L33.2377405,45.205037 L33.5597877,45.6579155 C33.7204262,45.8841474 33.8802769,46.1101045 34.0383942,46.3359496 L34.3520373,46.7875385 C35.1807615,47.9916347 35.9422482,49.195631 36.493047,50.424221 C27.6658659,42.5655939 21.1911061,35.6463118 25.5343944,29.2081389 C27.8299869,25.8059107 31.5890737,23.0345125 35.2782989,20.1726992 L35.89226,19.6947695 C36.1986542,19.4552624 36.5039716,19.2148491 36.807325,18.9731123 L37.4111501,18.4877504 C43.1176142,13.8576974 47.9014872,8.64940005 45.6763747,3.90798505e-13 Z" id="Combined-Shape"></path>
            </g>
        </g>
    </g>
</svg>