<?xml version="1.0" encoding="UTF-8"?>
<svg width="95px" height="95px" viewBox="0 0 95 95" version="1.1" xmlns="http://www.w3.org/2000/svg" xmlns:xlink="http://www.w3.org/1999/xlink">
    <title>3CFC3DCF-57CC-4B46-8501-43F6C44E8678</title>
    <g id="Pages" stroke="none" stroke-width="1" fill="none" fill-rule="evenodd">
        <g id="Technologie" transform="translate(-367.000000, -1373.000000)" fill="#000000">
            <g id="ico-js" transform="translate(367.000000, 1373.000000)">
                <path d="M0,95 L95,95 L95,0 L0,0 L0,95 Z M0.76,94.24 L94.24,94.24 L94.24,0.76 L0.76,0.76 L0.76,94.24 Z" id="Fill-1"></path>
                <path d="M56.2544336,78.7671454 L63.4509945,74.5063132 C65.3456461,77.6700827 67.807967,79.9942044 72.1638109,79.9942044 C75.8263675,79.9942044 78.1615657,78.1217035 78.1615657,75.539128 C78.1615657,72.4403375 75.7624487,71.3425438 71.7218346,69.5354065 L69.5126681,68.5661087 C63.1357647,65.7907893 58.9059526,62.3042797 58.9059526,54.9442723 C58.9059526,48.165151 63.9565509,43 71.8485811,43 C77.4675261,43 81.5081778,45.0017278 84.4120612,50.2311268 L77.5300152,54.7507974 C76.0144745,51.9747471 74.3736922,50.8773381 71.8482049,50.8773381 C69.2595513,50.8773381 67.6180165,52.555941 67.6180165,54.7507974 C67.6180165,57.4622536 69.2595513,58.560432 73.0473872,60.2390349 L75.2569299,61.207217 C82.7701878,64.5002518 87,67.8571498 87,75.4102474 C87,83.545693 80.7498808,88 72.3530089,88 C64.145749,88 58.8423724,83.9972753 56.2540573,78.7675301 M25.0003762,79.7357122 L32.1976896,75.2814052 C33.5864461,77.7989633 34.8495471,79.929187 37.8794622,79.929187 C40.7837218,79.929187 42.6152071,78.7675301 42.6152071,74.2485904 L42.6152071,43.516946 L51.4536789,43.516946 L51.4536789,74.3763169 C51.4536789,83.7376674 46.0874746,87.9988843 38.2582345,87.9988843 C31.1877053,87.9988843 27.083511,84.2542672 25,79.7349428" id="Fill-2"></path>
            </g>
        </g>
    </g>
</svg>