<?xml version="1.0" encoding="UTF-8"?>
<svg width="123px" height="62px" viewBox="0 0 123 62" version="1.1" xmlns="http://www.w3.org/2000/svg" xmlns:xlink="http://www.w3.org/1999/xlink">
    <title>220BAC1B-DC23-4C99-B289-E7A037F69D7A</title>
    <g id="Pages" stroke="none" stroke-width="1" fill="none" fill-rule="evenodd">
        <g id="Technologie" transform="translate(-367.000000, -2089.000000)" fill="#111111" fill-rule="nonzero">
            <path d="M468.485038,2102.03002 C471.243419,2102.09925 474.539451,2101.8454 477.835483,2102.16848 C481.786046,2102.53772 485.292463,2103.92235 487.676826,2107.26856 C489.453411,2109.73783 490.084566,2112.59941 489.991061,2115.53022 C489.827428,2121.41493 488.120972,2126.79194 484.217161,2131.40739 C480.827625,2135.42284 476.549797,2137.47672 471.3603,2137.89211 C467.620122,2138.19211 463.90332,2138.05365 460.163142,2138.05365 C459.344978,2138.05365 459.087841,2138.23827 458.947585,2139.06905 C458.269677,2142.85372 457.474889,2146.59224 456.75023,2150.35384 C456.633349,2150.90769 456.399588,2151 455.885314,2151 C453.173685,2150.97692 450.43868,2150.97692 447.727051,2151 C447.049144,2151 446.908887,2150.88461 447.049144,2150.16922 C448.662095,2142.46141 450.251671,2134.73052 451.81787,2126.99963 C453.454198,2118.96874 455.090526,2110.93785 456.656726,2102.90695 C456.820358,2102.1454 457.100872,2102.00694 457.778779,2102.00694 C459.34318,2102.02824 460.902602,2102.0348 462.516799,2102.03568 L464.151467,2102.03501 C465.532594,2102.03343 466.965591,2102.03002 468.485038,2102.03002 Z M378.061492,2102.04647 C384.644929,2102.16166 391.251794,2101.77004 397.811802,2102.23077 C404.934096,2102.71453 409.666673,2107.02234 409.971245,2114.27881 C410.275817,2121.18973 408.167243,2127.29438 403.340951,2132.4315 C400.131233,2135.86393 396.101514,2137.47648 391.48608,2137.8681 C389.588363,2138.02935 387.667218,2138.09846 386.144359,2138.05239 C383.848356,2138.05239 381.927211,2138.07542 380.029494,2138.05239 C379.443779,2138.05239 379.186065,2138.14453 379.045493,2138.81259 C378.319207,2142.52145 377.499206,2146.23031 376.772919,2149.93918 C376.632347,2150.69938 376.42149,2151.02189 375.531203,2150.99885 C372.977486,2150.90671 370.40034,2150.92974 367.823194,2150.97582 C367.120336,2150.97582 366.88605,2150.88367 367.05005,2150.10043 C367.963765,2145.74655 368.854052,2141.4157 369.72091,2137.06182 C371.290626,2129.32159 372.836914,2121.55832 374.40663,2113.79504 C375.109488,2110.31655 375.835775,2106.83805 376.515204,2103.33651 C376.702633,2102.46113 376.983776,2102.02344 378.061492,2102.04647 Z M420.41922,2089 C423.330132,2089.04607 426.241045,2089.02304 429.267471,2089.02304 C428.551294,2092.54772 427.858219,2096.02633 427.11894,2099.4819 C426.587583,2101.96991 426.541378,2101.94687 429.059548,2101.96991 C432.524921,2102.01598 435.990293,2101.73954 439.40946,2102.3385 C441.234557,2102.66102 442.990345,2103.19088 444.584417,2104.15844 C446.709845,2105.44852 447.795662,2107.38364 447.957379,2109.87165 C448.072891,2111.78373 447.957379,2113.69582 447.564637,2115.58486 C446.10918,2122.72638 444.630622,2129.86789 443.22137,2137.03244 C443.082755,2137.79267 442.805525,2138 442.043143,2138 C439.201538,2137.95393 436.383035,2137.97696 433.44902,2137.97696 C434.488632,2132.81664 435.528243,2127.74847 436.544753,2122.70334 C437.053007,2120.12318 437.607467,2117.54302 437.977106,2114.93982 C438.369849,2112.03714 437.538159,2110.30936 434.303812,2110.12506 C431.392899,2109.9638 428.458884,2110.00987 425.547971,2109.9638 C425.085921,2109.94076 424.993511,2110.17113 424.924204,2110.56276 C423.168415,2119.4551 421.389524,2128.3244 419.656838,2137.21674 C419.541325,2137.76963 419.379608,2137.97696 418.778943,2137.97696 C415.891133,2137.93089 413.003323,2137.95393 410,2137.95393 C410.531357,2135.25858 411.085817,2132.60931 411.617174,2129.98307 C413.07263,2122.74941 414.481882,2115.51575 415.937338,2108.28209 C417.184872,2102.06206 418.455509,2095.86507 419.703043,2089.64504 C419.77235,2089.20733 419.910965,2089 420.41922,2089 Z M476.573173,2110.684 C472.903123,2109.78398 469.186322,2109.85321 465.46952,2109.94552 C464.991979,2109.96365 464.90408,2110.19549 464.854321,2110.46192 L464.828849,2110.6096 L464.828849,2110.6096 L464.814989,2110.684 C464.464347,2112.25325 464.160457,2113.84558 463.833192,2115.41484 C462.898147,2120.03029 461.963103,2124.64575 461.004682,2129.2612 C460.817673,2130.16122 461.004682,2130.53045 461.986479,2130.46122 C462.851395,2130.39199 463.692935,2130.43815 464.557851,2130.43815 C466.614949,2130.34584 468.672047,2130.1843 470.705769,2129.83814 C472.225216,2129.56121 473.744663,2129.30736 475.077102,2128.43042 C476.923815,2127.16117 477.835483,2125.29191 478.536766,2123.28419 C479.518563,2120.46876 480.173094,2117.5841 479.869205,2114.60713 C479.65882,2112.59941 478.723775,2111.21477 476.573173,2110.684 Z M385.699216,2109.971 C385.019786,2109.92493 384.832357,2110.24744 384.738643,2110.80031 C384.480928,2112.25161 384.176357,2113.72594 383.871785,2115.17723 C382.911212,2119.89969 381.974068,2124.62216 380.990067,2129.34462 C380.826067,2130.05875 380.872924,2130.42733 381.810068,2130.42733 C384.926072,2130.4043 388.042076,2130.28912 391.111222,2129.73624 L391.111222,2129.73624 L391.613007,2129.64422 C393.369846,2129.31266 395.116494,2128.85084 396.3358,2127.29438 C399.287804,2123.51641 400.037519,2119.11646 399.826661,2114.53221 C399.732947,2112.57411 398.631803,2111.21497 396.476372,2110.68513 C394.666512,2110.2532 392.843474,2110.13226 391.017142,2110.05991 L389.799207,2110.01599 L389.799207,2110.01599 L389.190077,2109.99404 C388.042076,2109.99404 386.870646,2110.04011 385.699216,2109.971 Z" id="ico-php"></path>
        </g>
    </g>
</svg>