<?xml version="1.0" encoding="UTF-8"?>
<svg width="95px" height="134px" viewBox="0 0 95 134" version="1.1" xmlns="http://www.w3.org/2000/svg" xmlns:xlink="http://www.w3.org/1999/xlink">
    <title>CEF0FA6F-2380-4E26-874F-6FBA7047F67D</title>
    <g id="Pages" stroke="none" stroke-width="1" fill="none" fill-rule="evenodd">
        <g id="Technologie" transform="translate(-367.000000, -1152.000000)" fill-rule="nonzero">
            <g id="ico-html" transform="translate(367.000000, 1152.000000)">
                <polygon id="Path" fill="#111111" points="8.64557775 123.303902 0 27 95 27 86.3452558 123.288816 47.4418582 134"></polygon>
                <path d="M30.8725386,57.8316677 L31.948968,69.9473308 L74.8735981,69.9473308 L74.5862045,73.1244322 L71.8183545,104.273002 L71.6411975,106.271913 L47.535,112.983 L47.5351461,112.984888 L47.4809355,113 L23.3533555,106.271913 L21.7031763,87.694702 L33.5270393,87.694702 L34.3656167,97.130907 L47.4835293,100.688927 L47.4944233,100.685019 L60.6312707,97.1233512 L61.9984657,81.7787379 L21.1768931,81.7787379 L18.2819467,49.1742355 L18,46 L77,46 L76.7183127,49.1742355 L76.1816543,55.1722717 L75.9453586,57.8316677 L30.8725386,57.8316677 Z" id="Combined-Shape" fill="#FFFFFF"></path>
                <path d="M15.0054347,0 L15.0054347,5.94403569 L20.499226,5.94403569 L20.499226,0 L26.5051813,0 L26.5051813,18 L20.4994863,18 L20.4994863,11.9725393 L15.005695,11.9725393 L15.005695,18 L9,18 L9,0 L15.0054347,0 Z M45.6985778,0 L45.6985778,5.96906321 L40.4090795,5.96906321 L40.4090795,18 L34.4031243,18 L34.4031243,5.96906321 L29.115708,5.96906321 L29.115708,0 L45.6985778,0 Z M54.5927422,0 L58.4449022,6.32466253 L62.2931586,0 L68.5577983,0 L68.5577983,18 L62.5768266,18 L62.5768266,9.078211 L58.4449022,15.4782168 L58.3415846,15.4782168 L54.2067975,9.078211 L54.2067975,18 L48.3304447,18 L48.3304447,0 L54.5927422,0 Z M77.5542393,0 L77.5542393,12.0502288 L86,12.0502288 L86,18 L71.5467226,18 L71.5467226,0 L77.5542393,0 Z" id="Combined-Shape" fill="#111111"></path>
            </g>
        </g>
    </g>
</svg>