<?xml version="1.0" encoding="UTF-8"?>
<svg width="167px" height="40px" viewBox="0 0 167 40" version="1.1" xmlns="http://www.w3.org/2000/svg" xmlns:xlink="http://www.w3.org/1999/xlink">
    <title>7B9FA3CA-BC10-4390-8969-E5AA0B33B77F</title>
    <g id="Pages" stroke="none" stroke-width="1" fill="none" fill-rule="evenodd">
        <g id="Homepage-1400" transform="translate(-119.000000, -24.000000)" fill="#FFFFFF">
            <g id="Menu" transform="translate(-1.000000, 0.000000)">
                <g id="Logo" transform="translate(120.000000, 24.000000)">
                    <path d="M23.8088898,15.86048 C23.7488231,15.86048 23.6999554,15.9098436 23.6999554,15.970177 C23.6999554,16.0308532 23.7488231,16.0802169 23.8088898,16.0802169 C23.8689564,16.0802169 23.9178241,16.0308532 23.9178241,15.970177 C23.9178241,15.9098436 23.8689564,15.86048 23.8088898,15.86048 M23.8088898,17.9172995 C22.7463555,17.9172995 21.8816678,17.0438368 21.8816678,15.970177 C21.8816678,14.8965172 22.7463555,14.0233973 23.8088898,14.0233973 C24.871424,14.0233973 25.7361117,14.8965172 25.7361117,15.970177 C25.7361117,17.0438368 24.871424,17.9172995 23.8088898,17.9172995 M100.659537,21.1828434 C100.579788,21.1828434 100.498341,21.1845574 100.415538,21.1883282 C97.0087088,21.3309344 93.3656858,24.0737033 91.9417339,27.5689253 C91.621718,28.3560016 91.4839381,29.1886708 91.5236431,29.9908304 C92.0228408,29.7052753 92.5200023,29.4228054 93.0113946,29.1434207 C94.8558129,28.095814 96.7626733,27.0128985 98.5762098,25.8665643 L98.6688549,25.8082878 C99.7453029,25.1302229 102.266404,23.542701 102.426921,22.2475903 C102.4802,21.8166866 102.348189,21.6723664 102.298643,21.6175179 C102.048874,21.3439609 101.432937,21.1828434 100.659537,21.1828434 M54.2514626,2.0311108 C51.693711,2.0311108 48.5967172,2.74756962 45.0130821,4.8486108 C40.4544675,7.52110503 36.1320471,11.992288 33.4511079,16.8086738 C32.0254592,19.3704426 29.7588778,24.3160652 30.5960774,28.6569829 C31.0542126,31.026439 31.9358683,32.3846256 33.3710191,32.9303683 C36.2572707,34.0311108 39.1757614,32.8645501 42.046063,29.4646274 C43.4533864,27.7958611 45.6534533,25.78532 48.1412969,25.6869354 C49.6086869,25.624888 50.9637489,26.2217085 52.1735651,27.4479158 C52.7209518,28.0029143 53.1661913,28.6607537 53.5693503,29.3467031 C56.1610379,26.8089305 57.9576065,24.359944 58.84571,23.0446079 C61.9460973,18.4503586 64.512333,11.8256856 63.2563639,7.38261251 C62.6981177,5.40772292 61.4540262,4.01354206 59.4528239,3.12053956 C58.1069246,2.51960545 56.3629567,2.0311108 54.2514626,2.0311108 M34.8343368,40 C30.1654304,40 26.0615573,38.4854952 23.2570914,35.7221581 C20.9219595,33.424005 19.691103,30.4059651 19.6228918,27.137336 C14.2128245,34.9885591 6.7245203,39.0792304 1.10880122,39.5886361 C0.550555029,39.6417706 0.054072251,39.2218366 0.00418642162,38.6562112 C-0.0463781266,38.0905858 0.366961603,37.5907787 0.926904586,37.5400438 C7.15211312,36.9754468 15.931001,31.5101344 20.867662,20.8369549 C20.9972973,20.5232899 21.1371133,20.2096249 21.2874495,19.8966456 C21.5290734,19.3934104 22.1249885,19.1774443 22.6285978,19.4112361 C23.1318678,19.645028 23.3578811,20.242534 23.1372975,20.7557105 C23.013092,21.0436653 22.8868503,21.3278492 22.7575544,21.6092906 C21.1829268,25.4548576 20.9338371,30.5636546 24.6783285,34.2498181 C27.1410595,36.6758368 30.8339684,37.9928869 35.0437215,37.942152 C42.0935733,37.8670781 47.8698094,34.4304754 52.0337491,30.772079 C51.6309295,30.0518494 51.2203046,29.3960667 50.7312877,28.8996876 C49.9283634,28.0858727 49.1050776,27.7070751 48.220707,27.742041 C46.8547855,27.7962039 45.2122861,28.881519 43.5959173,30.7988177 C40.1571887,34.8709776 36.3736709,36.2733857 32.6529347,34.8552087 C30.5227758,34.0448217 29.1958806,32.1460345 28.59759,29.0508638 C27.6355062,24.0634192 30.1135084,18.6087337 31.6762583,15.8008322 C37.5363162,5.27368685 50.1360514,-3.2874818 60.2757704,1.23923527 C62.8280923,2.3783705 64.4895959,4.25521836 65.2141282,6.81767274 C66.1738365,10.2124534 65.5226058,16.8028461 60.5279144,24.2032829 C59.193214,26.1802293 57.2266263,28.7365133 54.6094868,31.2341778 C55.2613962,32.409993 55.9380788,33.4531433 56.931723,33.9567213 C59.0998901,35.0557486 61.3871724,33.2008401 63.5448194,31.2067535 C63.5702713,31.1817289 67.209222,27.6316583 70.6129966,22.4001378 C71.0131013,21.7333854 71.4257623,21.0645763 71.8482648,20.4036516 C72.1492765,19.9326399 72.7675893,19.7917478 73.2392989,20.0869014 C73.7106691,20.3817122 73.8620233,21.0035573 73.579337,21.4855387 C73.1663366,22.1896566 72.7441735,22.870121 72.3196349,23.5241897 C70.9676272,25.7808635 69.757811,28.0176548 68.798442,29.8273132 C67.8614707,31.5937784 67.7124919,32.8796335 68.3426823,33.758581 C68.838147,34.4472728 70.2590448,34.6433562 71.2917154,34.4291042 C72.7750552,34.1226381 76.1211388,32.3513736 81.8804069,23.9259551 C82.0544982,23.6712523 82.1736134,23.499165 82.2275715,23.4288904 C83.3101279,22.0227114 84.5117995,20.0025718 84.6489007,19.7715224 C84.6570453,19.7574674 84.661457,19.7499258 84.6621357,19.7488974 C84.9488944,19.2607455 85.5739944,19.1003136 86.0565634,19.3896395 C86.5401506,19.6793083 86.6996495,20.3097235 86.4132301,20.7982181 C86.4132301,20.7985609 86.4128908,20.7989037 86.4125514,20.7992465 C86.4122121,20.7999321 86.411194,20.8016462 86.4091578,20.8050742 C86.4044068,20.8133015 86.3966015,20.826328 86.3864208,20.843811 C86.2045241,21.1519911 85.0547745,23.0960284 82.1698804,27.8819047 L82.1101532,27.9806321 C81.4148058,29.1355362 79.7865595,31.8392256 80.1432262,33.3088231 C80.2189033,33.6190601 80.380099,33.8357118 80.6665183,34.0101986 C82.7905687,35.3035953 85.7212764,33.4863952 87.8619554,32.1594038 L88.3543658,31.8549945 C88.7673662,31.6026913 89.1837602,31.3531305 89.6018509,31.1063122 C89.3334176,29.7097317 89.4803603,28.2079106 90.0586286,26.7866483 C91.7937732,22.5280034 96.1138181,19.3097664 100.331037,19.1328799 C101.414951,19.0876299 102.899309,19.2394917 103.796915,20.2247083 C104.171228,20.6357294 104.588301,21.3648719 104.447127,22.5026359 C104.166477,24.7699367 101.291085,26.5806235 99.746321,27.5534992 L99.6553727,27.6107473 C97.8024704,28.7821061 95.8742304,29.8773625 94.0097899,30.9362818 C93.3680614,31.3006816 92.7171701,31.6702236 92.0659394,32.0452503 C92.1422953,32.1912845 92.2264564,32.3328623 92.3180834,32.469298 C93.1087908,33.6406567 94.357294,34.2631874 95.8576018,34.2487897 C97.2639071,34.2258219 98.7262067,33.7633803 100.203777,32.8744914 C100.456261,32.723658 100.693812,32.5673397 100.92797,32.413421 C101.750577,31.8731631 102.601012,31.3147366 103.77791,31.1090546 C104.794631,30.9314825 105.95015,31.1361361 107.03101,31.6849641 C107.621834,31.9862882 108.189922,32.3572013 108.739005,32.7161163 C109.857873,33.4476585 110.914638,34.138407 112.036221,34.1973692 C113.642409,34.28307 114.792837,33.3098516 115.207195,32.3061236 C115.448819,31.7195872 115.672796,30.5698251 114.456532,29.4557145 C113.915933,28.9593354 113.24434,28.5983635 112.533722,28.2161379 C112.387458,28.137636 112.241194,28.0587912 112.095948,27.978918 C111.21056,27.4890522 110.011942,26.694777 109.311165,25.6845358 C108.376909,24.3376618 108.711178,22.5605697 109.281302,21.4478303 C110.630934,18.803446 113.740484,19.0814594 115.411829,19.2305788 C119.042635,19.5555563 122.293019,19.6827363 125.869867,19.380041 C126.639534,18.0815023 127.365763,16.8213575 128.01394,15.6959344 C128.658722,14.5759961 129.21595,13.6092909 129.610625,12.964478 C129.901456,12.4896955 130.513321,12.3357768 130.990461,12.6179039 C131.4676,12.8993454 131.634904,13.5139916 131.367828,14.0024863 C130.431875,15.7144458 129.445697,17.4154356 128.457482,19.0872871 C130.689788,18.7746505 132.911574,18.2991824 134.533373,17.9323829 C135.07533,17.8069169 135.622038,18.1538338 135.74794,18.7054042 C135.873164,19.2569747 135.534144,19.8071739 134.989132,19.9367535 C132.874923,20.4396459 130.932091,20.8102162 129.099211,21.0724607 C128.443569,21.1691313 127.782157,21.2538037 127.129908,21.3199647 C127.08138,21.4012091 127.032852,21.4824534 126.984663,21.5636978 C125.450079,24.1354079 123.863574,26.7945328 122.401953,29.4903376 C121.495864,31.1587611 121.214535,32.6897205 121.667919,33.4860524 C121.965198,34.0084846 122.653758,34.2871837 123.714596,34.3146079 C125.55053,34.3595151 127.200156,33.2303212 128.747635,32.0692466 C135.098406,27.3070237 140.491166,25.2789996 145.724766,25.6931059 C147.353691,25.8216571 149.167228,26.2217085 151.268541,26.9169135 C151.803032,27.0938 152.094203,27.6745087 151.919093,28.2144239 C151.744323,28.7539962 151.16843,29.0481214 150.634957,28.8715777 C148.689749,28.228136 147.031639,27.8589369 145.566625,27.743755 C140.853262,27.3731847 135.894204,29.2712863 129.961523,33.7208727 C128.209071,35.0355232 126.131852,36.4355317 123.663352,36.3707419 C121.396432,36.3124653 120.367155,35.3272487 119.902572,34.5110342 C119.073177,33.0541203 119.333466,30.8636075 120.616584,28.501693 C121.904792,26.1260664 123.280555,23.7915762 124.633581,21.5205046 C121.430028,21.7008191 118.436539,21.5664402 115.232308,21.2791711 C113.067195,21.0854873 111.695504,21.2058112 111.090087,22.3919105 C110.756836,23.0422083 110.612269,23.9756616 110.978777,24.5042642 C111.349697,25.0390373 112.092894,25.6317441 113.071607,26.1737161 C113.209047,26.2491328 113.349542,26.3248923 113.490376,26.4006518 C114.280405,26.8253851 115.096903,27.264516 115.824829,27.9326396 C117.3662,29.3443034 117.838248,31.2749714 117.086567,33.0969707 C116.258531,35.1051122 114.183009,36.3727987 111.929323,36.2511035 C110.265444,36.1640315 108.866604,35.2497752 107.632694,34.4431591 C107.105329,34.0982991 106.607489,33.772636 106.115079,33.521704 C105.432287,33.1751299 104.706398,33.0342377 104.124396,33.1357075 C103.360159,33.2694008 102.747615,33.6718518 102.037676,34.1377214 C101.780102,34.3070662 101.518795,34.4784679 101.243235,34.6430134 C99.4585442,35.7166733 97.6568852,36.276471 95.8905197,36.3052665 C93.7084388,36.33749 91.8076869,35.3646143 90.635879,33.627973 C90.5154064,33.4490297 90.4037571,33.2649443 90.30161,33.0760597 C90.002295,33.2543174 89.7043374,33.4339463 89.4090948,33.6142609 L88.9268651,33.9121569 C86.4875498,35.4249477 82.8007495,37.7114454 79.6145043,35.7715218 C78.8696104,35.3166218 78.368716,34.6347862 78.165779,33.798689 C78.0286779,33.234092 78.0337682,32.6280159 78.1335399,32.0113128 C75.7186585,34.5737672 73.5664413,36.0587909 71.7006434,36.443759 C70.0483026,36.786905 67.7769702,36.4708404 66.6947532,34.9662769 C66.0184099,34.0235679 65.789003,32.8998589 66.0055142,31.6074906 C65.3834685,32.2728717 64.990151,32.6561257 64.9361928,32.707889 C62.9377054,34.5562842 59.6211462,37.6219738 56.0185069,35.7948324 C54.6549609,35.103741 53.7933275,33.9128425 53.0579357,32.6376144 C52.2030894,33.3698421 51.290552,34.0859581 50.3189661,34.7695078 C45.4664663,38.1831427 40.3343343,39.9427519 35.0654405,39.9989716 C34.9884059,40 34.911032,40 34.8343368,40" id="Fill-1-Copy"></path>
                </g>
            </g>
        </g>
    </g>
</svg>