<?xml version="1.0" encoding="UTF-8"?>
<svg width="206px" height="51px" viewBox="0 0 206 51" version="1.1" xmlns="http://www.w3.org/2000/svg" xmlns:xlink="http://www.w3.org/1999/xlink">
    <title>1E2C1E81-01CF-4D94-9996-ECADDDDAC909</title>
    <g id="Pages" stroke="none" stroke-width="1" fill="none" fill-rule="evenodd">
        <g id="Proces-vyvoje" transform="translate(-71.000000, -24.000000)" fill="#111111" stroke="#111111" stroke-width="0.4">
            <g id="Logo" transform="translate(72.000000, 25.000000)">
                <path d="M29.2264814,19.429088 C29.152747,19.429088 29.0927596,19.4895584 29.0927596,19.5634668 C29.0927596,19.6377951 29.152747,19.6982656 29.2264814,19.6982656 C29.3002159,19.6982656 29.3602033,19.6377951 29.3602033,19.5634668 C29.3602033,19.4895584 29.3002159,19.429088 29.2264814,19.429088 M29.2264814,21.9486919 C27.9221729,21.9486919 26.8607299,20.8787001 26.8607299,19.5634668 C26.8607299,18.2482336 27.9221729,17.1786617 29.2264814,17.1786617 C30.5307899,17.1786617 31.5922329,18.2482336 31.5922329,19.5634668 C31.5922329,20.8787001 30.5307899,21.9486919 29.2264814,21.9486919 M123.564102,25.9489832 C123.466206,25.9489832 123.366227,25.9510828 123.264582,25.9557021 C119.082547,26.1303946 114.610572,29.4902865 112.862607,33.7719335 C112.469774,34.736102 112.300643,35.7561217 112.349382,36.7387672 C112.96217,36.3889622 113.572458,36.0429366 114.175664,35.7006904 C116.43977,34.4173721 118.780527,33.0908006 121.006725,31.6865413 L121.120451,31.6151525 C122.441839,30.7845231 125.536603,28.8398088 125.733645,27.2532981 C125.799048,26.7254411 125.636999,26.5486489 125.576178,26.4814595 C125.269576,26.1463521 124.513486,25.9489832 123.564102,25.9489832 M66.5961068,2.48811073 C63.4563518,2.48811073 59.6546529,3.36577278 55.2555799,5.93954823 C49.6596757,9.21335366 44.3537105,14.6905528 41.0627373,20.5906254 C39.3126894,23.7287921 36.530359,29.7871799 37.5580591,35.104804 C38.1204406,38.0073878 39.2027126,39.6711663 40.9644247,40.3397012 C44.5074281,41.6881093 48.0900065,40.2590739 51.6134307,36.0941685 C53.3409833,34.0499298 56.0416642,31.587017 59.095604,31.4664959 C60.8968911,31.3904879 62.5602906,32.1215929 64.0453943,33.6236968 C64.7173361,34.30357 65.2638875,35.1094233 65.7587833,35.9497112 C68.9401962,32.8409399 71.1455648,29.8409314 72.2357518,28.2296447 C76.0416164,22.6016893 79.191786,14.4864648 77.6500275,9.04370032 C76.9647552,6.62446058 75.4375771,4.91658902 72.9810114,3.82266097 C71.3288595,3.08651667 69.1880606,2.48811073 66.5961068,2.48811073 M42.7607128,49 C37.0294205,49 31.9917321,47.1447316 28.5491242,43.7596437 C25.6826449,40.9444062 24.1717133,37.2473073 24.0879809,33.2432366 C17.4468803,42.8609849 8.25465066,47.8720573 1.36110329,48.4960792 C0.675831024,48.561169 0.0663761165,48.0467498 0.00513902055,47.3538587 C-0.0569312332,46.6609676 0.450461848,46.0487039 1.13781701,45.9865537 C8.77954006,45.2949224 19.5560192,38.5999147 25.6159922,25.5252698 C25.7751254,25.1410301 25.9467559,24.7567905 26.1313003,24.3733908 C26.4279045,23.7569277 27.159417,23.4923693 27.7776201,23.7787643 C28.3954066,24.0651593 28.6728481,24.7971042 28.4020718,25.4257454 C28.2496039,25.77849 28.0946366,26.1266152 27.93592,26.471381 C26.002994,31.1822006 25.6972251,37.4404769 30.2937565,41.9560272 C33.3168695,44.9279001 37.8500809,46.5412865 43.017742,46.4791362 C51.6717517,46.3871707 58.7623409,42.1773324 63.8737638,37.6957968 C63.3792847,36.8135155 62.8752242,36.0101817 62.2749341,35.4021173 C61.2893084,34.405194 60.278688,33.9411669 59.1930835,33.9840002 C57.5163535,34.0503498 55.5001117,35.3798608 53.5159464,37.7285516 C49.2947526,42.7169476 44.6503146,44.4348975 40.0829437,42.6976306 C37.4680781,41.7049066 35.8392546,39.3788922 35.1048261,35.5873082 C33.9238249,29.4776885 36.9656839,22.7956988 38.8840297,19.3560194 C46.0775139,6.46026639 61.5442547,-4.0271652 73.9912152,1.5180632 C77.124305,2.91350387 79.1638752,5.21264249 80.0532711,8.3516491 C81.2313562,12.5102555 80.4319413,20.5834865 74.3007333,29.6490216 C72.6623285,32.0707809 70.2482539,35.2022287 67.0355975,38.2618678 C67.8358456,39.7022414 68.6665039,40.9801006 69.8862468,41.5969836 C72.5477693,42.943292 75.355511,40.6710291 78.0041196,38.2282731 C78.035363,38.1976179 82.5023384,33.8487815 86.6806246,27.4401688 C87.1717711,26.6233972 87.678331,25.8041059 88.1969717,24.9944732 C88.5664772,24.4174839 89.3254839,24.244891 89.9045286,24.6064542 C90.4831566,24.9675974 90.6689508,25.7293577 90.3219406,26.3197849 C89.8149641,27.1823293 89.29674,28.0158983 88.7755998,28.8171323 C87.1159495,31.5815578 85.6308458,34.3216271 84.4531773,36.5384587 C83.303003,38.7023786 83.1201248,40.277551 83.8937118,41.3542618 C84.501917,42.1979092 86.2461328,42.4381114 87.5137823,42.1756526 C89.3346486,41.8002317 93.4421164,39.6304327 100.511877,29.309295 C100.725582,28.997284 100.871801,28.7864772 100.938037,28.7003907 C102.266924,26.9778214 103.742029,24.5031504 103.910327,24.2201149 C103.920325,24.2028976 103.925741,24.1936591 103.926574,24.1923993 C104.278583,23.5944132 105.045921,23.3978841 105.638296,23.7523084 C106.231921,24.1071527 106.427713,24.8794113 106.076121,25.4778172 C106.076121,25.4782371 106.075704,25.4786571 106.075288,25.479077 C106.074871,25.4799169 106.073621,25.4820166 106.071122,25.4862159 C106.06529,25.4962943 106.055708,25.5122518 106.043211,25.5336684 C105.819925,25.9111891 104.408556,28.2926348 100.867218,34.1553333 L100.793901,34.2762743 C99.9403305,35.6910319 97.941585,39.0030513 98.3794094,40.8033084 C98.4723065,41.1833486 98.6701814,41.4487469 99.021774,41.6624933 C101.629141,43.2469043 105.226716,41.0208342 107.854496,39.3952697 L108.458952,39.0223683 C108.965929,38.7132969 109.477071,38.4075849 109.990296,38.1052324 C109.660782,36.3944213 109.841161,34.5546905 110.551011,32.8136442 C112.680979,27.5968042 117.984028,23.6544638 123.160854,23.4377779 C124.491407,23.3823466 126.313523,23.5683773 127.415374,24.7752676 C127.874861,25.2787685 128.386836,26.1719681 128.213539,27.565729 C127.869029,30.3431725 124.339356,32.5612638 122.443089,33.7530365 L122.331445,33.8231655 C120.056925,35.25808 117.689924,36.5997691 115.401239,37.8969452 C114.613488,38.343335 113.81449,38.7960239 113.015075,39.2554316 C113.108806,39.4343235 113.212117,39.6077563 113.324593,39.77489 C114.295222,41.2098045 115.827816,41.9724046 117.669511,41.9547674 C119.395814,41.9266318 121.190852,41.3601408 123.004637,40.271252 C123.314572,40.086481 123.606177,39.8949911 123.893616,39.7064408 C124.903404,39.0446248 125.94735,38.3605523 127.392046,38.1085919 C128.640116,37.8910661 130.058567,38.1417667 131.385371,38.814081 C132.110635,39.183203 132.807988,39.6375716 133.482012,40.0772425 C134.855473,40.9733816 136.1527,41.8195486 137.529493,41.8917773 C139.501161,41.9967608 140.913363,40.8045682 141.422006,39.5750014 C141.71861,38.8564944 141.993552,37.4480357 140.500534,36.0832503 C139.836923,35.4751858 139.012514,35.0329953 138.140198,34.5647689 C137.960652,34.468604 137.781107,34.3720192 137.602811,34.2741746 C136.515956,33.6740889 135.0446,32.7011019 134.184364,31.4635564 C133.037523,29.8136357 133.447853,27.6366979 134.147706,26.2735921 C135.80444,23.0342213 139.621552,23.3747878 141.673203,23.5574591 C146.130181,23.9555565 150.120173,24.111352 154.510915,23.7405503 C155.455715,22.1498403 156.347194,20.6061629 157.14286,19.2275196 C157.93436,17.8555953 158.618382,16.6713814 159.102864,15.8814856 C159.459872,15.299877 160.210963,15.1113266 160.796673,15.4569323 C161.382383,15.8016981 161.587757,16.5546398 161.259909,17.1530457 C160.110984,19.2501961 158.900406,21.3339086 157.687329,23.3819266 C160.427584,22.9989468 163.154926,22.4164984 165.145757,21.967169 C165.811033,21.8134732 166.482142,22.2384464 166.636693,22.9141202 C166.79041,23.589794 166.374248,24.263788 165.705222,24.4225231 C163.109936,25.0385663 160.725022,25.4925149 158.475079,25.8137644 C157.670249,25.9321858 156.858337,26.0359095 156.057672,26.1169568 C155.998101,26.2164811 155.93853,26.3160055 155.879376,26.4155298 C153.995606,29.5658747 152.0481,32.8233027 150.253895,36.1256636 C149.141629,38.1694823 148.796285,40.0449076 149.352835,41.0204142 C149.717758,41.6603936 150.562996,42.0018 151.865222,42.0353947 C154.118914,42.090406 156.143904,40.7071435 158.043503,39.284827 C165.839361,33.451104 172.459216,30.9667745 178.883695,31.4740547 C180.883274,31.63153 183.109472,32.1215929 185.688928,32.9732191 C186.34504,33.189905 186.702464,33.9012732 186.48751,34.5626693 C186.272972,35.2236454 185.566037,35.5839487 184.911175,35.3676827 C182.523345,34.5794666 180.487941,34.1271977 178.68957,33.9860999 C172.903705,33.5321512 166.816238,35.8573258 159.533606,41.308069 C157.382393,42.9185159 154.832513,44.6335263 151.802319,44.5541588 C149.019572,44.48277 147.756088,43.2758797 147.185791,42.2760169 C146.167673,40.4912974 146.487189,37.8079192 148.062273,34.9145739 C149.643607,32.0044314 151.332418,29.1446809 152.993318,26.3626181 C149.060813,26.5835034 145.386171,26.4188893 141.452833,26.0669846 C138.79506,25.8297219 137.111248,25.9771187 136.368071,27.4300904 C135.958991,28.2267051 135.781528,29.3701854 136.231433,30.0177236 C136.686754,30.6728207 137.599062,31.3988865 138.800475,32.0628022 C138.96919,32.1551877 139.141653,32.2479931 139.314533,32.3407985 C140.284329,32.8610967 141.286618,33.3990322 142.18018,34.2174835 C144.072281,35.9467717 144.651742,38.31184 143.72902,40.5437891 C142.712567,43.0037625 140.164771,44.5566784 137.398271,44.4076018 C135.355784,44.3009386 133.638646,43.1809746 132.123965,42.1928699 C131.476602,41.7704163 130.86548,41.371479 130.261025,41.0640874 C129.422868,40.6395341 128.531806,40.4669412 127.817373,40.5912417 C126.879237,40.7550159 126.127312,41.2480185 125.255829,41.8187088 C124.939646,42.0261561 124.61888,42.2361231 124.280618,42.4376915 C122.08983,43.7529247 119.878212,44.4386769 117.709919,44.4739514 C115.031317,44.5134252 112.698059,43.3216525 111.259612,41.1942669 C111.111726,40.9750614 110.974672,40.7495568 110.849282,40.5181732 C110.481859,40.7365388 110.116103,40.9565843 109.753679,41.1774695 L109.161721,41.5423922 C106.167352,43.3955609 101.641639,46.1965207 97.7303795,43.8201142 C96.8159888,43.2628618 96.2011184,42.427613 95.9520042,41.403394 C95.7837063,40.7117627 95.789955,39.9693194 95.9124292,39.2138582 C92.9480539,42.3528648 90.3061106,44.1720189 88.0157599,44.6436047 C85.9874373,45.0639587 83.1992748,44.6767795 81.8708048,42.8336892 C81.0405631,41.6788707 80.7589557,40.3023271 81.0247331,38.7191759 C80.261144,39.5342678 79.778329,40.003754 79.712093,40.0671641 C77.2588599,42.3314482 73.1876345,46.0869179 68.7652331,43.8486697 C67.0914191,43.0020828 66.0337253,41.5432321 65.1309989,39.9810776 C64.0816367,40.8780566 62.9614561,41.7552987 61.7687907,42.5926471 C55.8121292,46.7743498 49.5122068,48.929871 43.044403,48.9987402 C42.9498396,49 42.8548596,49 42.7607128,49" id="Fill-1"></path>
            </g>
        </g>
    </g>
</svg>