<?xml version="1.0" encoding="UTF-8"?>
<svg width="43px" height="59px" viewBox="0 0 43 59" version="1.1" xmlns="http://www.w3.org/2000/svg" xmlns:xlink="http://www.w3.org/1999/xlink">
    <title>3-question</title>
    <g id="Pages" stroke="none" stroke-width="1" fill="none" fill-rule="evenodd" fill-opacity="0">
        <g id="Homepage" transform="translate(-938.000000, -6881.000000)" fill="#FFFFFF" fill-rule="nonzero" stroke="#465DFF" stroke-width="2.5">
            <path d="M962.285778,6917.538 L962.507778,6916.428 C962.877778,6914.578 963.913778,6913.246 965.763778,6912.284 C967.613778,6911.322 969.537778,6910.212 971.535778,6909.102 C973.607778,6907.992 975.457778,6906.512 977.085778,6904.736 C978.713778,6902.886 979.527778,6900.296 979.527778,6896.818 C979.527778,6889.122 973.385778,6882.24 961.101778,6882.24 C955.477778,6882.24 950.889778,6883.646 947.263778,6886.532 C943.637778,6889.418 941.195778,6892.97 939.937778,6897.336 L953.109778,6901.184 C953.775778,6896.374 956.291778,6893.71 960.435778,6893.71 C964.061778,6893.71 966.503778,6895.412 966.503778,6898.594 C966.429778,6905.18 954.145778,6904.958 954.071778,6914.504 C954.071778,6915.466 954.441778,6916.576 954.811778,6917.538 L962.285778,6917.538 Z M958.733778,6937.814 C963.765778,6937.814 967.317778,6934.484 967.317778,6929.674 C967.317778,6924.716 963.765778,6921.46 958.733778,6921.46 C953.701778,6921.46 950.223778,6924.716 950.223778,6929.674 C950.223778,6934.484 953.701778,6937.814 958.733778,6937.814 Z" id="3-question"></path>
        </g>
    </g>
</svg>