<svg xmlns="http://www.w3.org/2000/svg" viewBox="0 0 348 317"><defs><style>.cls-1{fill:#f6e8ff;}.cls-2{fill:#465dff;}</style></defs><g id="Layer_2" data-name="Layer 2"><g id="Layer_1-2" data-name="Layer 1"><path class="cls-1" d="M309,317H0V0H309V64c26.11.64,32.9.42,34.62.23A2.58,2.58,0,0,1,346,64.1l2,.71v3.4l-.93.94a2.66,2.66,0,0,1-.6.47c-1.73,1.84-9.2,10.61-37.48,45.41ZM6,311H303V112.9l.68-.83c12.74-15.68,22.48-27.6,29-35.41,2-2.44,3.76-4.52,5.19-6.21-5.78.07-15.44-.08-31.9-.5L303,69.87V6H6Z"/><path class="cls-2" d="M46.65,78.26c3.77,0,7-2.3,7-6.62V61.2H49.89V71.64a3.24,3.24,0,1,1-6.46,0V61.2H39.71V71.64C39.71,76,42.88,78.26,46.65,78.26Z"/><path class="cls-2" d="M60.18,71.3a2.47,2.47,0,0,1,2.69-2.42,7.41,7.41,0,0,1,1.51.17V65.52a3.85,3.85,0,0,0-.91-.1,3.5,3.5,0,0,0-3.38,3V65.69H56.61V78h3.57Z"/><path class="cls-2" d="M72.11,78.24a8.06,8.06,0,0,0,5-1.82L75.52,73.8A4.92,4.92,0,0,1,72.28,75a3.2,3.2,0,1,1,0-6.38,4.92,4.92,0,0,1,3.24,1.22l1.63-2.61a8.08,8.08,0,0,0-5-1.83c-4.22,0-6.89,2.76-6.89,6.41S67.89,78.24,72.11,78.24Z"/><polygon class="cls-2" points="73.33 64.15 75.88 60 73.36 60 71.58 62.21 69.81 60 67.29 60 69.81 64.15 73.33 64.15"/><path class="cls-2" d="M81,64.42a2,2,0,1,0,0-4,2,2,0,1,0,0,4Z"/><rect class="cls-2" x="79.17" y="65.69" width="3.58" height="12.31"/><path class="cls-2" d="M86.58,73.92c0,3.55,2.09,4.34,4.27,4.34,2.91,0,4.11-1.84,4.11-3.67a3.46,3.46,0,0,0-.29-1.46H91.84A3.89,3.89,0,0,1,92,74.18c0,.58-.24,1.16-.94,1.16s-.91-.53-.91-1.08V68.5h3.41V65.69H90.16v-3H87.4l-.55,3H84.73V68.5h1.85Z"/><path class="cls-2" d="M106,71.4c0-1.7.7-3,2.35-3s2.28,1.29,2.28,3V78h3.58V71.3c0-3.14-.94-5.88-4.39-5.88a4.35,4.35,0,0,0-3.82,2V60.65h-3.58V78H106Z"/><path class="cls-2" d="M120.54,71.3a2.47,2.47,0,0,1,2.69-2.42,7.41,7.41,0,0,1,1.51.17V65.52a3.85,3.85,0,0,0-.91-.1,3.49,3.49,0,0,0-3.38,3V65.69H117V78h3.57Z"/><path class="cls-2" d="M131.65,78.26a4.39,4.39,0,0,0,3.87-2.06V78h3.57V65.69h-3.57v1.68a4.93,4.93,0,0,0-3.94-2c-3.84,0-5.93,2.91-5.93,6.36S127.91,78.26,131.65,78.26Zm.65-9.93c1.95,0,3.31,1.37,3.31,3.67a3.09,3.09,0,0,1-3.21,3.36c-2,0-3.17-1.56-3.17-3.55S130.33,68.33,132.3,68.33Z"/><path class="cls-2" d="M145.62,71.4c0-1.7.7-3,2.35-3s2.28,1.29,2.28,3V78h3.58V71.3c0-3.14-.94-5.88-4.39-5.88a4.36,4.36,0,0,0-3.82,2V65.69H142V78h3.58Z"/><rect class="cls-2" x="156.68" y="65.69" width="3.58" height="12.31"/><path class="cls-2" d="M158.51,64.42a2,2,0,1,0,0-4,2,2,0,1,0,0,4Z"/><path class="cls-2" d="M169.38,78.24a8.06,8.06,0,0,0,5-1.82l-1.63-2.62A4.92,4.92,0,0,1,169.55,75a3.2,3.2,0,1,1,0-6.38,4.92,4.92,0,0,1,3.24,1.22l1.63-2.61a8.08,8.08,0,0,0-5-1.83c-4.22,0-6.89,2.76-6.89,6.41S165.16,78.24,169.38,78.24Z"/><rect class="cls-2" x="176.44" y="65.69" width="3.58" height="12.31"/><path class="cls-2" d="M178.26,64.42a2,2,0,1,0,0-4,2,2,0,1,0,0,4Z"/><path class="cls-2" d="M192.32,71.4c0-1.66.48-3,2-3s2.07,1.32,2.07,3V78H200V71.4c0-1.66.48-3,2-3s2.06,1.32,2.06,3V78h3.58V71.3c0-3.14-.93-5.88-4.39-5.88a4.09,4.09,0,0,0-3.89,2.07,4.1,4.1,0,0,0-7.06-.12V65.69h-3.57V78h3.57Z"/><path class="cls-2" d="M216.76,78.26a7.67,7.67,0,0,0,5.73-2.42l-2.06-2A5.12,5.12,0,0,1,217,75.34c-2.3,0-3.7-1.13-3.77-2.67h9.92c0-4.89-3.29-7.25-6.68-7.25a6.49,6.49,0,0,0-6.79,6.48C209.7,75.41,212.2,78.26,216.76,78.26Zm-.32-9.93a2.88,2.88,0,0,1,3.05,2.18h-6.17A3.08,3.08,0,0,1,216.44,68.33Z"/><polygon class="cls-2" points="236.77 75.14 229.48 75.14 236.37 67.8 236.37 65.69 224.6 65.69 224.6 68.5 231.18 68.5 224.27 75.91 224.27 78 236.77 78 236.77 75.14"/><path class="cls-2" d="M240.83,64.42a2,2,0,1,0,0-4,2,2,0,1,0,0,4Z"/><rect class="cls-2" x="239" y="65.69" width="3.58" height="12.31"/><polygon class="cls-2" points="42.71 110 45.76 110 47.87 103.02 49.98 110 53.03 110 56.47 100.5 57.42 97.69 53.49 97.69 51.35 105.1 49.12 98.02 46.62 98.02 44.39 105.1 42.26 97.69 38.32 97.69 39.28 100.5 42.71 110"/><path class="cls-2" d="M58.05,103.9c0,3.51,2.49,6.36,7,6.36a7.69,7.69,0,0,0,5.74-2.42l-2.06-2a5.12,5.12,0,0,1-3.41,1.47c-2.31,0-3.7-1.13-3.77-2.67h9.91c0-4.89-3.29-7.25-6.67-7.25A6.49,6.49,0,0,0,58.05,103.9Zm6.74-3.57c1.2,0,2.81.6,3,2.18H61.67A3.08,3.08,0,0,1,64.79,100.33Z"/><path class="cls-2" d="M77.06,92.65H73.48V110h3.58v-1.8a4.37,4.37,0,0,0,3.86,2.06c3.74,0,6-2.88,6-6.48S84.83,97.42,81,97.42a4.93,4.93,0,0,0-3.93,2Zm3.21,7.68c2,0,3.07,1.58,3.07,3.48s-1.17,3.55-3.16,3.55A3.1,3.1,0,0,1,77,104C77,101.7,78.33,100.33,80.27,100.33Z"/><path class="cls-2" d="M88.38,103.83a6.78,6.78,0,1,0,6.77-6.41A6.51,6.51,0,0,0,88.38,103.83Zm6.77-3.33a3.35,3.35,0,1,1-3.29,3.33A3.29,3.29,0,0,1,95.15,100.5Z"/><polygon class="cls-2" points="110.99 110 116.13 97.69 112.22 97.69 109.19 105.99 106.19 97.69 102.28 97.69 107.44 110 110.99 110"/><path class="cls-2" d="M123.26,110.26a6.43,6.43,0,1,0-6.77-6.43A6.52,6.52,0,0,0,123.26,110.26Zm0-9.76a3.35,3.35,0,1,1-3.29,3.33A3.28,3.28,0,0,1,123.26,100.5Z"/><path class="cls-2" d="M135.64,104.31V97.69h-3.58v6.69c0,3.12.94,5.88,4.4,5.88a4.34,4.34,0,0,0,3.81-1.94V110h3.58V97.69h-3.58v6.6c0,1.7-.69,3-2.35,3S135.64,106,135.64,104.31Z"/><path class="cls-2" d="M157,100.11a1.71,1.71,0,0,1,1.75,1.18l2.76-1.27a4.62,4.62,0,0,0-4.44-2.6c-2.62,0-4.82,1.3-4.82,3.77,0,.55.14,2.52,3.07,3.53l2.16.91c.67.27.91.53.91.94,0,.65-.81.93-1.61.93a2.5,2.5,0,0,1-2.59-1.84l-2.59,1.46c.84,2.57,3.33,3.14,5.16,3.14,2.71,0,5-1.29,5-3.81,0-.82-.26-2.71-3.17-3.55l-1.85-.72c-.65-.27-1.15-.51-1.15-1.06S156.33,100.11,157,100.11Z"/><path class="cls-2" d="M172.82,105.13H170a3.53,3.53,0,0,1,.17,1.05c0,.58-.24,1.16-.93,1.16s-.92-.53-.92-1.08V100.5h3.41V97.69H168.3v-3h-2.76l-.55,3h-2.11v2.81h1.85v5.42c0,3.55,2.08,4.34,4.27,4.34,2.9,0,4.1-1.84,4.1-3.67A3.61,3.61,0,0,0,172.82,105.13Z"/><path class="cls-2" d="M178.33,103.3a2.47,2.47,0,0,1,2.69-2.42,7.41,7.41,0,0,1,1.51.17V97.52a3.85,3.85,0,0,0-.91-.1,3.5,3.5,0,0,0-3.38,3V97.69h-3.48V110h3.57Z"/><polygon class="cls-2" points="194.66 92 190.89 92 188.51 96.15 191.1 96.15 194.66 92"/><path class="cls-2" d="M189.45,110.26a4.38,4.38,0,0,0,3.86-2.06V110h3.58V97.69h-3.58v1.68a4.93,4.93,0,0,0-3.94-2c-3.84,0-5.92,2.91-5.92,6.36S185.7,110.26,189.45,110.26Zm.65-9.93c1.94,0,3.31,1.37,3.31,3.67a3.1,3.1,0,0,1-3.22,3.36c-2,0-3.17-1.56-3.17-3.55S188.13,100.33,190.1,100.33Z"/><path class="cls-2" d="M205.77,100.38c1.65,0,2.28,1.29,2.28,3V110h3.57v-6.7c0-3.14-.93-5.88-4.39-5.88a4.37,4.37,0,0,0-3.82,2V97.69h-3.57V110h3.57v-6.6C203.41,101.7,204.11,100.38,205.77,100.38Z"/><path class="cls-2" d="M218,104.41l2.47,4a4.07,4.07,0,0,0,3.65,1.87,4.64,4.64,0,0,0,3.22-1.2L226,106.54a2.67,2.67,0,0,1-1.33.44c-.69,0-1.12-.27-1.67-1.11l-1.61-2.57,4.08-5.13v-.48h-4l-3.51,5v-10h-3.57V110H218Z"/><path class="cls-2" d="M234,110.26a6.43,6.43,0,1,0-6.77-6.43A6.52,6.52,0,0,0,234,110.26Zm0-9.76a3.35,3.35,0,1,1-3.29,3.33A3.29,3.29,0,0,1,234,100.5Z"/><path class="cls-2" d="M251,108.32V110h3.58V97.69H251v6.6c0,1.7-.7,3-2.35,3s-2.28-1.29-2.28-3V97.69h-3.58v6.69c0,3.12.94,5.88,4.39,5.88A4.34,4.34,0,0,0,251,108.32Z"/><path class="cls-2" d="M52.17,142V129.69H48.59v1.68a4.93,4.93,0,0,0-3.93-2c-3.84,0-5.93,2.91-5.93,6.36,0,3.6,2.25,6.48,6,6.48a4.38,4.38,0,0,0,3.86-2.06V142Zm-6.7-2.64c-2,0-3.17-1.56-3.17-3.55s1.11-3.48,3.08-3.48,3.31,1.37,3.31,3.67A3.1,3.1,0,0,1,45.47,139.36Z"/><polygon class="cls-2" points="74.25 129.69 72.11 137.1 69.88 130.02 67.38 130.02 65.15 137.1 63.01 129.69 59.08 129.69 60.04 132.5 63.47 142 66.52 142 68.63 135.02 70.74 142 73.79 142 77.22 132.5 78.18 129.69 74.25 129.69"/><path class="cls-2" d="M85.6,129.42a6.49,6.49,0,0,0-6.79,6.48c0,3.51,2.49,6.36,7,6.36a7.69,7.69,0,0,0,5.74-2.42l-2.06-2a5.12,5.12,0,0,1-3.41,1.47c-2.31,0-3.7-1.13-3.77-2.67h9.91C92.27,131.78,89,129.42,85.6,129.42Zm-3.17,5.09a3.08,3.08,0,0,1,3.12-2.18c1.2,0,2.81.6,3,2.18Z"/><path class="cls-2" d="M107.68,135.78c0-3.45-2.09-6.36-5.93-6.36a5,5,0,0,0-3.94,2v-6.72H94.24V142h3.57v-1.8a4.4,4.4,0,0,0,3.87,2.06C105.42,142.26,107.68,139.38,107.68,135.78Zm-6.74,3.58A3.1,3.1,0,0,1,97.72,136c0-2.3,1.37-3.67,3.31-3.67s3.07,1.58,3.07,3.48S102.93,139.36,100.94,139.36Z"/><path class="cls-2" d="M115.91,129.42a6.43,6.43,0,1,0,6.77,6.41A6.5,6.5,0,0,0,115.91,129.42Zm0,9.77a3.35,3.35,0,1,1,3.29-3.36A3.31,3.31,0,0,1,115.91,139.19Z"/><polygon class="cls-2" points="129.95 137.99 126.95 129.69 123.04 129.69 128.2 142 131.75 142 136.89 129.69 132.97 129.69 129.95 137.99"/><path class="cls-2" d="M144,129.42a6.43,6.43,0,1,0,6.76,6.41A6.5,6.5,0,0,0,144,129.42Zm0,9.77a3.35,3.35,0,1,1,3.28-3.36A3.3,3.3,0,0,1,144,139.19Z"/><path class="cls-2" d="M161,136.29c0,1.7-.7,3-2.35,3s-2.28-1.29-2.28-3v-6.62h-3.58v6.69c0,3.12.94,5.88,4.39,5.88a4.34,4.34,0,0,0,3.82-1.94V142h3.58V129.69H161Z"/><path class="cls-2" d="M178.6,142.26a4.38,4.38,0,0,0,3.86-2.06V142H186V129.69h-3.58v1.68a4.93,4.93,0,0,0-3.93-2c-3.84,0-5.93,2.91-5.93,6.36C172.6,139.38,174.85,142.26,178.6,142.26Zm.65-9.93c1.94,0,3.31,1.37,3.31,3.67a3.1,3.1,0,0,1-3.22,3.36c-2,0-3.17-1.56-3.17-3.55S177.28,132.33,179.25,132.33Z"/><path class="cls-2" d="M202.43,135.9c0-3.6-2.25-6.48-6-6.48a4.38,4.38,0,0,0-3.86,2.07v-1.8H189v17.93h3.58v-7.3a4.92,4.92,0,0,0,3.93,1.94C200.34,142.26,202.43,139.36,202.43,135.9Zm-6.65,3.46c-1.94,0-3.31-1.37-3.31-3.67a3.1,3.1,0,0,1,3.22-3.36c2,0,3.16,1.56,3.16,3.55S197.75,139.36,195.78,139.36Z"/><rect class="cls-2" x="204.71" y="124.65" width="3.58" height="17.35"/><rect class="cls-2" x="211.33" y="129.69" width="3.58" height="12.31"/><path class="cls-2" d="M213.16,124.38a2,2,0,1,0,0,4,2,2,0,1,0,0-4Z"/><path class="cls-2" d="M228.14,139c-.7,0-1.13-.27-1.68-1.11l-1.61-2.57,4.08-5.13v-.48h-4l-3.51,5v-10h-3.57V142h3.57v-5.59l2.48,4a4,4,0,0,0,3.64,1.87,4.64,4.64,0,0,0,3.22-1.2l-1.34-2.52A2.67,2.67,0,0,1,228.14,139Z"/><path class="cls-2" d="M240.71,131.37a4.93,4.93,0,0,0-3.94-2c-3.83,0-5.92,2.91-5.92,6.36,0,3.6,2.25,6.48,6,6.48a4.38,4.38,0,0,0,3.86-2.06V142h3.58V129.69h-3.58Zm-3.12,8c-2,0-3.17-1.56-3.17-3.55s1.11-3.48,3.08-3.48,3.31,1.37,3.31,3.67A3.1,3.1,0,0,1,237.59,139.36Z"/><path class="cls-2" d="M253.53,132.64a4.92,4.92,0,0,1,3.24,1.22l1.63-2.61a8.08,8.08,0,0,0-5-1.83c-4.22,0-6.89,2.76-6.89,6.41s2.67,6.41,6.89,6.41a8.06,8.06,0,0,0,5-1.82l-1.63-2.62a4.92,4.92,0,0,1-3.24,1.22,3.2,3.2,0,1,1,0-6.38Z"/><polygon class="cls-2" points="266.68 124 262.91 124 260.54 128.15 263.13 128.15 266.68 124"/><rect class="cls-2" x="260.41" y="129.69" width="3.58" height="12.31"/><path class="cls-2" d="M44,175.3V161.69H40.43v14.18c0,.56-.21,1.16-.91,1.16s-.94-.51-.94-1.08a1.93,1.93,0,0,1,0-.41H35.77a1.79,1.79,0,0,0-.14.67c0,1.82,1.2,3.67,4.11,3.67C41.92,179.88,44,178.87,44,175.3Z"/><path class="cls-2" d="M42.23,160.42a2,2,0,1,0,0-4,2,2,0,1,0,0,4Z"/><path class="cls-2" d="M59,171.84l-2.06-2a5.12,5.12,0,0,1-3.41,1.47c-2.3,0-3.7-1.13-3.77-2.67H59.7c0-4.89-3.28-7.25-6.67-7.25a6.49,6.49,0,0,0-6.79,6.48c0,3.51,2.49,6.36,7.06,6.36A7.68,7.68,0,0,0,59,171.84ZM53,164.33c1.2,0,2.81.6,3.05,2.18H49.86A3.08,3.08,0,0,1,53,164.33Z"/><path class="cls-2" d="M73.72,164.64A4.92,4.92,0,0,1,77,165.86l1.63-2.61a8.08,8.08,0,0,0-5-1.83c-4.22,0-6.89,2.76-6.89,6.41s2.67,6.41,6.89,6.41a8.06,8.06,0,0,0,5-1.82L77,169.8A4.92,4.92,0,0,1,73.72,171a3.2,3.2,0,1,1,0-6.38Z"/><polygon class="cls-2" points="73.02 158.21 71.25 156 68.73 156 71.25 160.15 74.78 160.15 77.32 156 74.8 156 73.02 158.21"/><path class="cls-2" d="M85.67,174.26a4.39,4.39,0,0,0,3.87-2.06V174h3.57V161.69H89.54v1.68a4.93,4.93,0,0,0-3.94-2c-3.84,0-5.93,2.91-5.93,6.36C79.67,171.38,81.93,174.26,85.67,174.26Zm.65-9.93c1.94,0,3.31,1.37,3.31,3.67a3.09,3.09,0,0,1-3.21,3.36c-2,0-3.17-1.56-3.17-3.55S84.35,164.33,86.32,164.33Z"/><path class="cls-2" d="M105.3,170.45c0-.82-.26-2.71-3.17-3.55l-1.84-.72c-.65-.27-1.16-.51-1.16-1.06s.7-1,1.37-1a1.71,1.71,0,0,1,1.75,1.18L105,164a4.61,4.61,0,0,0-4.44-2.6c-2.61,0-4.82,1.3-4.82,3.77,0,.55.14,2.52,3.07,3.53l2.16.91c.67.27.91.53.91.94,0,.65-.81.93-1.6.93a2.51,2.51,0,0,1-2.6-1.84l-2.59,1.46c.84,2.57,3.34,3.14,5.16,3.14C103,174.26,105.3,173,105.3,170.45Z"/><path class="cls-2" d="M112.5,174.26c2.91,0,4.11-1.84,4.11-3.67a3.62,3.62,0,0,0-.29-1.46h-2.83a3.94,3.94,0,0,1,.16,1.05c0,.58-.24,1.16-.93,1.16s-.91-.53-.91-1.08V164.5h3.4v-2.81h-3.4v-3h-2.76l-.56,3h-2.11v2.81h1.85v5.42C108.23,173.47,110.32,174.26,112.5,174.26Z"/><path class="cls-2" d="M131,167.83a6.78,6.78,0,1,0-6.77,6.43A6.52,6.52,0,0,0,131,167.83Zm-6.77,3.36a3.35,3.35,0,1,1,3.29-3.36A3.31,3.31,0,0,1,124.26,171.19Z"/><polygon class="cls-2" points="145.67 174 150.81 161.69 146.89 161.69 143.87 169.99 140.87 161.69 136.96 161.69 142.12 174 145.67 174"/><path class="cls-2" d="M158,161.42a6.49,6.49,0,0,0-6.8,6.48c0,3.51,2.5,6.36,7.06,6.36a7.69,7.69,0,0,0,5.74-2.42l-2.07-2a5.07,5.07,0,0,1-3.4,1.47c-2.31,0-3.7-1.13-3.77-2.67h9.91C164.63,163.78,161.34,161.42,158,161.42Zm-3.17,5.09a3.08,3.08,0,0,1,3.12-2.18c1.2,0,2.81.6,3.05,2.18Z"/><rect class="cls-2" x="166.65" y="156.65" width="3.58" height="17.35"/><path class="cls-2" d="M187.74,161.42a4.09,4.09,0,0,0-3.89,2.07,4.09,4.09,0,0,0-7-.12v-1.68h-3.58V174h3.58v-6.6c0-1.66.48-3,2-3s2.06,1.32,2.06,3V174h3.55v-6.6c0-1.66.48-3,2-3s2.07,1.32,2.07,3V174h3.57v-6.7C192.13,164.16,191.2,161.42,187.74,161.42Z"/><path class="cls-2" d="M196.81,156.38a2,2,0,1,0,0,4,2,2,0,1,0,0-4Z"/><rect class="cls-2" x="194.99" y="161.69" width="3.58" height="12.31"/><path class="cls-2" d="M38.68,199.83a6.5,6.5,0,0,0,6.77,6.43,6.43,6.43,0,1,0,0-12.84A6.5,6.5,0,0,0,38.68,199.83Zm6.77-3.33a3.35,3.35,0,1,1-3.29,3.33A3.29,3.29,0,0,1,45.45,196.5Z"/><path class="cls-2" d="M58,204.2a4.37,4.37,0,0,0,3.86,2.06c3.74,0,6-2.88,6-6.48,0-3.45-2.09-6.36-5.93-6.36a4.93,4.93,0,0,0-3.93,2v-6.72H54.4V206H58Zm3.21-7.87c2,0,3.07,1.58,3.07,3.48s-1.17,3.55-3.16,3.55A3.1,3.1,0,0,1,57.88,200C57.88,197.7,59.25,196.33,61.19,196.33Z"/><path class="cls-2" d="M76,201.13a3.94,3.94,0,0,1,.16,1.05c0,.58-.24,1.16-.93,1.16s-.91-.53-.91-1.08V196.5h3.4v-2.81H74.3v-3H71.54l-.56,3H68.87v2.81h1.85v5.42c0,3.55,2.09,4.34,4.27,4.34,2.91,0,4.11-1.84,4.11-3.67a3.62,3.62,0,0,0-.29-1.46Z"/><rect class="cls-2" x="80.8" y="193.69" width="3.58" height="12.31"/><polygon class="cls-2" points="83.3 188 80.92 192.15 83.51 192.15 87.06 188 83.3 188"/><polygon class="cls-2" points="99.14 203.14 91.84 203.14 98.73 195.8 98.73 193.69 86.97 193.69 86.97 196.5 93.54 196.5 86.63 203.91 86.63 206 99.14 206 99.14 203.14"/><polygon class="cls-2" points="91.17 188 88.65 188 91.17 192.15 94.7 192.15 97.24 188 94.72 188 92.94 190.21 91.17 188"/><path class="cls-2" d="M107.25,196.38c1.65,0,2.28,1.29,2.28,3V206h3.57v-6.7c0-3.14-.93-5.88-4.39-5.88a4.34,4.34,0,0,0-3.81,2v-1.68h-3.58V206h3.58v-6.6C104.9,197.7,105.59,196.38,107.25,196.38Z"/><polygon class="cls-2" points="126.18 188 122.42 188 120.04 192.15 122.63 192.15 126.18 188"/><path class="cls-2" d="M121.94,193.42a6.49,6.49,0,0,0-6.8,6.48c0,3.51,2.5,6.36,7.06,6.36a7.69,7.69,0,0,0,5.74-2.42l-2.07-2a5.08,5.08,0,0,1-3.41,1.47c-2.3,0-3.69-1.13-3.77-2.67h9.92C128.61,195.78,125.32,193.42,121.94,193.42Zm-3.17,5.09a3.06,3.06,0,0,1,3.12-2.18c1.2,0,2.81.6,3,2.18Z"/><path class="cls-2" d="M132.38,202.09a2.09,2.09,0,1,0,0,4.17,2.09,2.09,0,1,0,0-4.17Z"/><path class="cls-2" d="M151.1,198.58c0,3-.84,4.56-3.32,4.56a2.8,2.8,0,0,1-2.9-3,5,5,0,0,1,.74-2.55h-3.43a5,5,0,0,0-.84,2.81c0,2.66,1.68,5.9,6.48,5.9,4.49,0,7-2.52,7-7.68v-9.4H151.1Z"/><path class="cls-2" d="M167,195.37a4.93,4.93,0,0,0-3.94-2c-3.84,0-5.93,2.91-5.93,6.36,0,3.6,2.26,6.48,6,6.48A4.39,4.39,0,0,0,167,204.2V206h3.58V193.69H167Zm-3.12,8c-2,0-3.17-1.56-3.17-3.55s1.1-3.48,3.07-3.48,3.32,1.37,3.32,3.67A3.1,3.1,0,0,1,163.84,203.36Z"/><path class="cls-2" d="M183.71,203c-.69,0-1.13-.27-1.68-1.11l-1.61-2.57,4.08-5.13v-.48h-4l-3.5,5v-10h-3.58V206H177v-5.59l2.47,4a4.06,4.06,0,0,0,3.65,1.87,4.64,4.64,0,0,0,3.22-1.2L185,202.54A2.61,2.61,0,0,1,183.71,203Z"/><path class="cls-2" d="M199.53,201.13a3.94,3.94,0,0,1,.16,1.05c0,.58-.24,1.16-.93,1.16s-.91-.53-.91-1.08V196.5h3.4v-2.81h-3.4v-3h-2.76l-.56,3h-2.11v2.81h1.85v5.42c0,3.55,2.09,4.34,4.27,4.34,2.91,0,4.11-1.84,4.11-3.67a3.62,3.62,0,0,0-.29-1.46Z"/><path class="cls-2" d="M210.3,193.42a6.43,6.43,0,1,0,6.77,6.41A6.51,6.51,0,0,0,210.3,193.42Zm0,9.77a3.35,3.35,0,1,1,3.29-3.36A3.3,3.3,0,0,1,210.3,203.19Z"/><path class="cls-2" d="M45.54,233.13a3.53,3.53,0,0,1,.17,1.05c0,.58-.24,1.16-.93,1.16s-.92-.53-.92-1.08V228.5h3.41v-2.81H43.86v-3H41.1l-.55,3H38.44v2.81h1.85v5.42c0,3.55,2.09,4.34,4.27,4.34,2.9,0,4.1-1.84,4.1-3.67a3.61,3.61,0,0,0-.28-1.46Z"/><path class="cls-2" d="M56.34,225.42a6.49,6.49,0,0,0-6.79,6.48c0,3.51,2.5,6.36,7.06,6.36a7.67,7.67,0,0,0,5.73-2.42l-2.06-2a5.1,5.1,0,0,1-3.41,1.47c-2.3,0-3.69-1.13-3.77-2.67H63C63,227.78,59.73,225.42,56.34,225.42Zm-3.16,5.09a3.06,3.06,0,0,1,3.12-2.18,2.87,2.87,0,0,1,3,2.18Z"/><path class="cls-2" d="M74.13,227.37a4.93,4.93,0,0,0-3.94-2c-3.84,0-5.93,2.91-5.93,6.36,0,3.6,2.26,6.48,6,6.48a4.39,4.39,0,0,0,3.87-2.06V238H77.7V220.65H74.13Zm-3.12,8c-2,0-3.17-1.56-3.17-3.55s1.1-3.48,3.07-3.48,3.31,1.37,3.31,3.67A3.09,3.09,0,0,1,71,235.36Z"/><polygon class="cls-2" points="86.37 233.39 83.44 225.69 79.41 225.69 84.47 236.97 81.66 243.62 85.26 243.62 93.23 225.69 89.3 225.69 86.37 233.39"/><path class="cls-2" d="M101.7,220.38a2,2,0,1,0,0,4,2,2,0,1,0,0-4Z"/><path class="cls-2" d="M99.9,239.87c0,.56-.21,1.16-.91,1.16s-.94-.51-.94-1.08a1.93,1.93,0,0,1,0-.41H95.25a1.63,1.63,0,0,0-.15.67c0,1.82,1.2,3.67,4.11,3.67,2.18,0,4.27-1,4.27-4.58V225.69H99.9Z"/><path class="cls-2" d="M112.5,225.42a6.49,6.49,0,0,0-6.79,6.48c0,3.51,2.5,6.36,7.06,6.36a7.68,7.68,0,0,0,5.73-2.42l-2.06-2a5.12,5.12,0,0,1-3.41,1.47c-2.3,0-3.7-1.13-3.77-2.67h9.92C119.18,227.78,115.89,225.42,112.5,225.42Zm-3.17,5.09a3.08,3.08,0,0,1,3.12-2.18c1.2,0,2.81.6,3,2.18Z"/><path class="cls-2" d="M125.49,234.09a2.09,2.09,0,1,0,0,4.17,2.09,2.09,0,1,0,0-4.17Z"/><path class="cls-2" d="M126,220.94c-3.82,0-5.57,2.49-5.57,4.44a3.64,3.64,0,0,0,.33,1.56h3.41a3,3,0,0,1-.31-1.2A1.91,1.91,0,0,1,126,224a2,2,0,0,1,2.18,1.92c0,1.32-1,2.07-2.59,3.1s-1.75,1.9-1.75,3.41h3.33v-.22a.89.89,0,0,1,.36-.86c2.91-1.8,4.23-3.31,4.23-5.5C131.73,222.86,129.33,220.94,126,220.94Z"/></g></g></svg>