<?xml version="1.0" encoding="UTF-8"?>
<svg width="90px" height="38px" viewBox="0 0 90 38" version="1.1" xmlns="http://www.w3.org/2000/svg" xmlns:xlink="http://www.w3.org/1999/xlink">
    <title>2-vs</title>
    <g id="Pages" stroke="none" stroke-width="1" fill="none" fill-rule="evenodd" fill-opacity="0">
        <g id="Homepage" transform="translate(-360.000000, -3990.000000)" fill="#FFFFFF" fill-rule="nonzero" stroke="#465DFF" stroke-width="2.4">
            <path d="M386.360001,4026 L399.620001,3992.4 L388.52,3992.4 L382.22,4009.8 L380.660001,4015.2 L379.22,4009.8 L373.1,3992.4 L361.82,3992.4 L374.72,4026 L386.360001,4026 Z M416.793334,4026.72 C421.173334,4026.72 424.533333,4025.7 426.933334,4023.66 C429.333333,4021.56 430.533333,4018.92 430.533333,4015.74 C430.533333,4012.62 429.393333,4010.4 427.053334,4009.02 C424.773333,4007.64 421.773333,4006.62 417.993333,4006.08 C412.173334,4005.18 409.533333,4004.82 409.533333,4002.84 C409.533333,4001.34 410.673334,4000.08 414.093333,4000.08 C418.173334,4000.08 421.713333,4001.64 424.173334,4004.76 L431.553334,3998.16 C427.233333,3993.42 421.593333,3991.56 414.633333,3991.56 C405.393333,3991.56 400.533333,3996.54 400.533333,4002.48 C400.533333,4005.42 401.493334,4007.58 403.473333,4008.96 C405.453333,4010.34 408.093333,4011.24 411.393333,4011.78 C417.873334,4012.8 421.293334,4013.04 421.293334,4015.2 C421.293334,4016.82 420.033333,4018.14 416.673334,4018.14 C412.773333,4018.14 409.293334,4016.64 406.473333,4013.46 L399.153333,4020.3 C402.933334,4024.32 408.573333,4026.72 416.793334,4026.72 Z M441.466666,4026.66 C445.546667,4026.66 448.426667,4023.84 448.426667,4019.94 C448.426667,4015.92 445.546667,4013.16 441.466666,4013.16 C437.386666,4013.16 434.566666,4015.92 434.566666,4019.94 C434.566666,4023.84 437.386666,4026.66 441.466666,4026.66 Z" id="2-vs"></path>
        </g>
    </g>
</svg>